{"glyphs":{"0":{"ha":288,"x_min":17,"x_max":268,"o":"m 268 117 q 234 25 268 58 q 143 -8 200 -8 q 52 25 88 -8 q 17 117 17 58 l 17 856 q 52 947 17 914 q 144 981 88 981 q 234 947 200 981 q 268 856 268 914 l 268 117 m 165 850 q 143 888 165 888 q 119 850 119 888 l 119 122 q 143 85 119 85 q 165 122 165 85 l 165 850 z "},"1":{"ha":232,"x_min":18,"x_max":213,"o":"m 167 93 l 213 93 l 213 0 l 18 0 l 18 93 l 65 93 l 65 814 l 18 814 l 18 894 q 73 910 58 894 q 88 972 88 926 l 167 972 l 167 93 z "},"2":{"ha":288,"x_min":19,"x_max":269,"o":"m 19 99 q 27 201 19 154 q 47 287 35 247 q 76 361 60 326 q 107 426 92 396 q 149 523 131 476 q 168 621 168 569 l 168 849 q 163 878 168 871 q 146 886 157 886 q 121 850 121 886 l 121 604 l 19 604 l 19 856 q 53 947 19 914 q 142 981 86 981 q 235 944 200 981 q 269 844 269 907 l 269 619 q 248 497 269 553 q 200 388 226 440 q 172 328 186 358 q 147 264 158 299 q 128 190 135 229 q 121 101 121 150 l 121 92 l 269 92 l 269 0 l 19 0 l 19 99 z "},"3":{"ha":288,"x_min":18,"x_max":268,"o":"m 119 646 l 18 646 l 18 856 q 51 947 18 914 q 142 981 85 981 q 233 947 199 981 q 268 856 268 914 l 268 626 q 259 556 268 579 q 218 522 250 533 l 218 519 q 259 484 250 507 q 268 415 268 461 l 268 117 q 233 25 268 58 q 142 -8 199 -8 q 51 25 85 -8 q 18 117 18 58 l 18 354 l 119 354 l 119 121 q 143 85 119 85 q 167 121 167 85 l 167 431 q 160 465 167 456 q 129 474 153 474 l 106 474 l 106 567 l 129 567 q 160 576 153 567 q 167 610 167 585 l 167 850 q 143 888 167 888 q 119 850 119 888 l 119 646 z "},"4":{"ha":310,"x_min":19,"x_max":290,"o":"m 161 143 l 19 143 l 19 236 l 111 972 l 263 972 l 263 236 l 290 236 l 290 143 l 263 143 l 263 0 l 161 0 l 161 143 m 161 236 l 176 861 l 174 861 l 115 236 l 161 236 z "},"5":{"ha":288,"x_min":18,"x_max":268,"o":"m 119 507 l 18 507 l 18 972 l 260 972 l 260 879 l 119 879 l 119 622 l 122 622 q 189 671 142 671 q 248 638 228 671 q 268 546 268 604 l 268 117 q 233 25 268 58 q 142 -8 199 -8 q 52 25 86 -8 q 18 117 18 58 l 18 397 l 119 397 l 119 122 q 143 86 119 86 q 167 122 167 86 l 167 546 q 143 582 167 582 q 119 546 119 582 l 119 507 z "},"6":{"ha":288,"x_min":18,"x_max":268,"o":"m 122 563 q 189 611 142 611 q 248 578 228 611 q 268 486 268 544 l 268 117 q 234 25 268 58 q 142 -8 200 -8 q 52 25 86 -8 q 18 117 18 58 l 18 860 q 53 949 18 917 q 144 981 89 981 q 235 947 201 981 q 268 856 268 914 l 268 674 l 167 674 l 167 850 q 143 888 167 888 q 119 850 119 888 l 119 563 l 122 563 m 119 122 q 143 85 119 85 q 167 122 167 85 l 167 486 q 143 522 167 522 q 119 486 119 522 l 119 122 z "},"7":{"ha":278,"x_min":18,"x_max":260,"o":"m 260 879 l 149 0 l 46 0 l 156 876 l 153 879 l 18 879 l 18 972 l 260 972 l 260 879 z "},"8":{"ha":288,"x_min":18,"x_max":268,"o":"m 142 981 q 234 947 200 981 q 268 856 268 914 l 268 619 q 258 556 268 576 q 218 522 249 535 l 218 519 q 259 484 250 507 q 268 415 268 461 l 268 117 q 235 25 268 58 q 144 -8 201 -8 q 52 25 86 -8 q 18 117 18 58 l 18 415 q 27 484 18 461 q 68 519 36 507 l 68 522 q 28 556 38 535 q 18 619 18 576 l 18 856 q 51 947 18 914 q 142 981 85 981 m 119 611 q 124 577 119 586 q 143 568 129 568 q 162 577 157 568 q 167 611 167 586 l 167 850 q 143 888 167 888 q 119 850 119 888 l 119 611 m 143 85 q 167 122 167 85 l 167 431 q 162 465 167 456 q 143 474 157 474 q 124 465 129 474 q 119 431 119 456 l 119 122 q 143 85 119 85 z "},"9":{"ha":288,"x_min":18,"x_max":268,"o":"m 143 981 q 234 947 200 981 q 268 856 268 914 l 268 113 q 233 24 268 56 q 142 -8 197 -8 q 51 25 85 -8 q 18 117 18 58 l 18 340 l 119 340 l 119 122 q 143 85 119 85 q 167 122 167 85 l 167 451 l 164 451 q 97 403 144 403 q 38 436 58 403 q 18 528 18 469 l 18 856 q 51 947 18 914 q 143 981 85 981 m 167 850 q 143 888 167 888 q 119 850 119 888 l 119 528 q 143 492 119 492 q 167 528 167 492 l 167 850 z "},"\u0000":{"ha":0,"x_min":0,"x_max":0,"o":""},"\r":{"ha":347,"x_min":0,"x_max":0,"o":""}," ":{"ha":115,"x_min":0,"x_max":0,"o":""},"O":{"ha":288,"x_min":17,"x_max":268,"o":"m 268 117 q 234 25 268 58 q 143 -8 200 -8 q 52 25 88 -8 q 17 117 17 58 l 17 856 q 52 947 17 914 q 144 981 88 981 q 234 947 200 981 q 268 856 268 914 l 268 117 m 165 850 q 143 888 165 888 q 119 850 119 888 l 119 122 q 143 85 119 85 q 165 122 165 85 l 165 850 z "},";":{"ha":163,"x_min":24,"x_max":125,"o":"m 24 694 l 125 694 l 125 556 l 24 556 l 24 694 m 24 139 l 125 139 l 125 0 l 100 -107 l 49 -107 l 72 0 l 24 0 l 24 139 z "},"E":{"ha":192,"x_min":18,"x_max":182,"o":"m 175 878 l 119 878 l 119 544 l 168 544 l 168 451 l 119 451 l 119 93 l 182 93 l 182 0 l 18 0 l 18 971 l 175 971 l 175 878 z "},"I":{"ha":139,"x_min":18,"x_max":119,"o":"m 119 0 l 18 0 l 18 972 l 119 972 l 119 0 z "},"H":{"ha":288,"x_min":18,"x_max":268,"o":"m 268 0 l 167 0 l 167 438 l 119 438 l 119 0 l 18 0 l 18 971 l 119 971 l 119 531 l 167 531 l 167 971 l 268 971 l 268 0 z "},"L":{"ha":189,"x_min":18,"x_max":179,"o":"m 119 972 l 119 93 l 179 93 l 179 0 l 18 0 l 18 972 l 119 972 z "},"F":{"ha":185,"x_min":18,"x_max":175,"o":"m 175 878 l 119 878 l 119 531 l 168 531 l 168 438 l 119 438 l 119 0 l 18 0 l 18 971 l 175 971 l 175 878 z "},"T":{"ha":258,"x_min":8,"x_max":249,"o":"m 249 879 l 179 879 l 179 0 l 78 0 l 78 879 l 8 879 l 8 972 l 249 972 l 249 879 z "},"S":{"ha":281,"x_min":15,"x_max":265,"o":"m 265 117 q 231 25 265 58 q 139 -8 196 -8 q 49 25 82 -8 q 15 117 15 58 l 15 342 l 117 342 l 117 122 q 140 85 117 85 q 163 122 163 85 l 163 299 q 142 397 163 353 q 94 486 121 442 q 40 590 65 535 q 15 718 15 644 l 15 856 q 50 947 15 914 q 142 981 85 981 q 231 947 197 981 q 265 856 265 914 l 265 674 l 163 674 l 163 850 q 140 888 163 888 q 117 850 117 888 l 117 718 q 138 618 117 663 q 185 529 158 574 q 240 426 214 481 q 265 299 265 371 l 265 117 z "},"C":{"ha":288,"x_min":18,"x_max":268,"o":"m 167 850 q 143 888 167 888 q 119 850 119 888 l 119 122 q 143 85 119 85 q 167 122 167 85 l 167 411 l 268 411 l 268 117 q 234 25 268 58 q 143 -8 200 -8 q 52 25 86 -8 q 18 117 18 58 l 18 856 q 53 947 18 914 q 144 981 88 981 q 234 947 200 981 q 268 856 268 914 l 268 604 l 167 604 l 167 850 z "},"G":{"ha":288,"x_min":18,"x_max":268,"o":"m 268 513 l 268 0 l 167 0 l 167 56 l 164 56 q 97 -8 146 -8 q 40 25 61 -8 q 18 117 18 58 l 18 856 q 53 947 18 914 q 144 981 88 981 q 235 947 201 981 q 268 856 268 914 l 268 604 l 167 604 l 167 850 q 143 888 167 888 q 121 850 121 888 l 121 121 q 143 83 121 83 q 167 124 167 83 l 167 419 l 143 419 l 143 513 l 268 513 z "},"U":{"ha":288,"x_min":18,"x_max":268,"o":"m 268 117 q 234 25 268 58 q 143 -8 200 -8 q 52 25 86 -8 q 18 117 18 58 l 18 972 l 119 972 l 119 122 q 143 85 119 85 q 167 122 167 85 l 167 972 l 268 972 l 268 117 z "},"J":{"ha":288,"x_min":18,"x_max":268,"o":"m 268 117 q 234 25 268 58 q 143 -8 200 -8 q 52 25 86 -8 q 18 117 18 58 l 18 411 l 119 411 l 119 122 q 143 85 119 85 q 167 122 167 85 l 167 972 l 268 972 l 268 117 z "},"D":{"ha":288,"x_min":18,"x_max":268,"o":"m 268 121 q 239 31 268 63 q 143 0 210 0 l 18 0 l 18 972 l 143 972 q 239 942 210 972 q 268 851 268 911 l 268 121 m 165 844 q 160 872 165 864 q 142 879 154 879 l 119 879 l 119 93 l 142 93 q 160 101 154 93 q 165 128 165 108 l 165 844 z "},"B":{"ha":283,"x_min":18,"x_max":268,"o":"m 268 626 q 259 557 268 581 q 218 522 250 533 l 218 519 q 259 485 250 508 q 268 415 268 461 l 268 121 q 238 29 268 58 q 144 0 207 0 l 18 0 l 18 972 l 144 972 q 268 853 268 972 l 268 626 m 167 846 q 143 879 167 879 l 119 879 l 119 568 l 143 568 q 167 601 167 568 l 167 846 m 167 440 q 161 467 167 460 q 143 474 156 474 l 119 474 l 119 93 l 143 93 q 167 128 167 93 l 167 440 z "},"R":{"ha":288,"x_min":18,"x_max":282,"o":"m 167 413 q 161 439 167 432 q 143 446 156 446 l 119 446 l 119 0 l 18 0 l 18 972 l 144 972 q 238 943 207 972 q 268 851 268 914 l 268 599 q 259 528 268 551 q 218 494 250 506 l 218 492 q 259 458 250 481 q 268 388 268 435 l 268 125 q 269 62 268 89 q 282 3 271 35 l 282 0 l 179 0 q 169 60 172 32 q 167 126 167 88 l 167 413 m 167 844 q 143 879 167 879 l 119 879 l 119 540 l 143 540 q 161 547 156 540 q 167 574 167 554 l 167 844 z "},"P":{"ha":288,"x_min":18,"x_max":268,"o":"m 268 539 q 240 449 268 481 q 144 418 211 418 l 119 418 l 119 0 l 18 0 l 18 972 l 144 972 q 240 942 211 972 q 268 851 268 911 l 268 539 m 167 844 q 161 872 167 864 q 143 879 156 879 l 119 879 l 119 513 l 143 513 q 161 519 156 513 q 167 546 167 526 l 167 844 z "},"Q":{"ha":288,"x_min":18,"x_max":268,"o":"m 268 117 q 246 39 268 69 q 183 -3 224 8 l 183 -24 q 186 -39 183 -35 q 200 -43 189 -43 l 240 -43 l 240 -121 l 183 -121 q 121 -100 139 -121 q 103 -35 103 -79 l 103 -3 q 41 39 64 8 q 18 117 18 69 l 18 856 q 53 947 18 914 q 144 981 88 981 q 235 947 201 981 q 268 856 268 914 l 268 117 m 167 850 q 143 888 167 888 q 119 850 119 888 l 119 122 q 143 85 119 85 q 167 122 167 85 l 167 850 z "},"A":{"ha":279,"x_min":0,"x_max":281,"o":"m 281 0 l 171 0 l 160 247 l 110 247 l 99 0 l 0 0 l 67 972 l 207 972 l 281 0 m 156 340 l 142 622 l 136 838 l 133 838 l 128 622 l 114 340 l 156 340 z "},"V":{"ha":276,"x_min":0,"x_max":276,"o":"m 211 0 l 72 0 l 0 972 l 110 972 l 138 349 l 143 133 l 146 133 l 151 349 l 179 972 l 276 972 l 211 0 z "},"W":{"ha":449,"x_min":0,"x_max":449,"o":"m 390 0 l 254 0 l 231 665 l 228 819 l 225 819 l 221 665 l 197 0 l 61 0 l 0 972 l 113 972 l 131 133 l 133 133 l 140 349 l 164 972 l 288 972 l 313 349 l 318 133 l 321 133 l 325 349 l 340 972 l 449 972 l 390 0 z "},"K":{"ha":285,"x_min":18,"x_max":283,"o":"m 211 528 l 211 525 l 283 0 l 182 0 l 122 461 l 119 461 l 119 0 l 18 0 l 18 972 l 119 972 l 119 565 l 122 565 l 181 972 l 283 972 l 211 528 z "},"X":{"ha":282,"x_min":0,"x_max":282,"o":"m 219 500 l 219 497 l 282 0 l 178 0 l 151 276 l 144 415 l 142 415 l 133 276 l 104 0 l 0 0 l 64 497 l 64 500 l 4 972 l 108 972 l 132 721 l 140 582 l 143 582 l 150 721 l 174 972 l 278 972 l 219 500 z "},"Y":{"ha":274,"x_min":0,"x_max":274,"o":"m 188 319 l 188 0 l 86 0 l 86 319 l 0 972 l 104 972 l 131 638 l 136 499 l 139 499 l 144 638 l 169 972 l 274 972 l 188 319 z "},"M":{"ha":447,"x_min":18,"x_max":428,"o":"m 428 0 l 332 0 l 336 819 l 333 819 l 322 625 l 276 0 l 171 0 l 124 625 l 113 819 l 110 819 l 114 0 l 18 0 l 18 972 l 183 972 l 215 410 l 222 217 l 225 217 l 231 408 l 263 972 l 428 972 l 428 0 z "},"N":{"ha":344,"x_min":18,"x_max":325,"o":"m 325 0 l 192 0 l 97 792 l 94 792 l 110 465 l 115 0 l 18 0 l 18 972 l 153 972 l 247 183 l 250 183 l 235 500 l 229 972 l 325 972 l 325 0 z "},"Z":{"ha":236,"x_min":8,"x_max":228,"o":"m 228 879 l 113 93 l 226 93 l 226 0 l 8 0 l 8 93 l 124 879 l 15 879 l 15 972 l 228 972 l 228 879 z "},".":{"ha":149,"x_min":24,"x_max":125,"o":"m 24 139 l 125 139 l 125 0 l 24 0 l 24 139 z "},"o":{"ha":276,"x_min":18,"x_max":257,"o":"m 257 117 q 224 25 257 58 q 139 -8 192 -8 q 51 25 85 -8 q 18 117 18 58 l 18 675 q 51 767 18 733 q 139 800 85 800 q 224 767 192 800 q 257 675 257 733 l 257 117 m 161 674 q 138 710 161 710 q 114 674 114 710 l 114 118 q 138 82 114 82 q 161 118 161 82 l 161 674 z "},"l":{"ha":133,"x_min":18,"x_max":114,"o":"m 18 1014 l 114 1014 l 114 0 l 18 0 l 18 1014 z "},"b":{"ha":276,"x_min":18,"x_max":257,"o":"m 18 1014 l 114 1014 l 114 743 l 117 742 q 185 800 133 800 q 238 768 219 800 q 257 675 257 736 l 257 117 q 238 24 257 56 q 183 -8 219 -8 q 117 49 135 -8 l 114 49 l 114 0 l 18 0 l 18 1014 m 161 674 q 138 710 161 710 q 114 674 114 710 l 114 118 q 138 82 114 82 q 161 118 161 82 l 161 674 z "},"d":{"ha":276,"x_min":18,"x_max":257,"o":"m 161 0 l 161 49 l 158 49 q 92 -8 140 -8 q 38 24 57 -8 q 18 117 18 56 l 18 675 q 38 768 18 736 q 92 800 57 800 q 158 742 142 800 l 161 743 l 161 1014 l 257 1014 l 257 0 l 161 0 m 114 118 q 138 82 114 82 q 161 118 161 82 l 161 674 q 138 710 161 710 q 114 674 114 710 l 114 118 z "},"q":{"ha":276,"x_min":18,"x_max":257,"o":"m 257 -222 l 161 -222 l 161 50 l 158 50 q 133 7 150 22 q 90 -8 115 -8 q 37 24 56 -8 q 18 117 18 56 l 18 675 q 37 768 18 736 q 92 800 56 800 q 158 743 140 800 l 161 743 l 161 792 l 257 792 l 257 -222 m 114 118 q 138 82 114 82 q 161 118 161 82 l 161 674 q 138 710 161 710 q 114 674 114 710 l 114 118 z "},"p":{"ha":276,"x_min":18,"x_max":257,"o":"m 114 792 l 114 743 l 117 743 q 183 800 135 800 q 238 768 219 800 q 257 675 257 736 l 257 117 q 238 24 257 56 q 185 -8 219 -8 q 142 7 160 -8 q 117 50 125 22 l 114 50 l 114 -222 l 18 -222 l 18 792 l 114 792 m 161 674 q 138 710 161 710 q 114 674 114 710 l 114 118 q 138 82 114 82 q 161 118 161 82 l 161 674 z "},"c":{"ha":276,"x_min":18,"x_max":257,"o":"m 160 674 q 136 710 160 710 q 114 674 114 710 l 114 118 q 136 82 114 82 q 160 118 160 82 l 160 338 l 257 338 l 257 117 q 224 25 257 58 q 138 -8 192 -8 q 51 25 85 -8 q 18 117 18 58 l 18 675 q 51 767 18 733 q 138 800 85 800 q 224 767 192 800 q 257 675 257 733 l 257 490 l 160 490 l 160 674 z "},"s":{"ha":268,"x_min":15,"x_max":253,"o":"m 253 117 q 219 25 253 58 q 133 -8 186 -8 q 48 25 81 -8 q 15 117 15 58 l 15 279 l 111 279 l 111 118 q 133 82 111 82 q 157 118 157 82 l 157 261 q 138 328 157 297 q 94 392 118 360 q 40 470 65 428 q 15 569 15 513 l 15 675 q 49 767 15 733 q 135 800 82 800 q 220 767 188 800 q 253 675 253 733 l 253 550 l 157 550 l 157 674 q 133 710 157 710 q 111 674 111 710 l 111 569 q 130 501 111 533 q 174 438 149 469 q 227 358 201 401 q 253 261 253 315 l 253 117 z "},"e":{"ha":276,"x_min":18,"x_max":257,"o":"m 257 310 l 257 117 q 224 25 257 58 q 138 -8 192 -8 q 51 25 83 -8 q 18 117 18 58 l 18 675 q 51 767 18 733 q 139 800 85 800 q 224 767 192 800 q 257 675 257 733 l 257 376 l 114 376 l 114 118 q 138 82 114 82 q 161 118 161 82 l 161 310 l 257 310 m 161 674 q 138 710 161 710 q 114 674 114 710 l 114 465 l 161 465 l 161 674 z "},"a":{"ha":276,"x_min":18,"x_max":257,"o":"m 114 508 l 18 508 l 18 675 q 51 767 18 733 q 136 800 83 800 q 224 767 190 800 q 257 675 257 733 l 257 0 l 161 0 l 161 63 l 158 63 q 133 10 151 29 q 89 -8 115 -8 q 36 22 54 -8 q 18 107 18 51 l 18 300 q 24 361 18 336 q 47 405 31 386 q 90 439 63 424 q 161 471 118 454 l 161 674 q 138 710 161 710 q 114 674 114 710 l 114 508 m 161 386 q 120 348 126 368 q 114 289 114 328 l 114 118 q 138 82 114 82 q 161 118 161 82 l 161 386 z "},"g":{"ha":276,"x_min":18,"x_max":257,"o":"m 257 -106 q 224 -197 257 -164 q 138 -231 190 -231 q 51 -198 83 -231 q 18 -108 18 -165 l 18 -37 l 114 -37 l 114 -104 q 138 -140 114 -140 q 161 -104 161 -140 l 161 50 l 158 50 q 133 7 150 22 q 90 -8 115 -8 q 37 24 56 -8 q 18 117 18 56 l 18 676 q 37 769 18 738 q 92 801 56 801 q 133 786 115 801 q 158 743 150 771 l 161 743 l 161 793 l 257 793 l 257 -106 m 114 118 q 138 82 114 82 q 161 118 161 82 l 161 675 q 138 711 161 711 q 114 675 114 711 l 114 118 z "},"n":{"ha":276,"x_min":18,"x_max":257,"o":"m 161 674 q 138 710 161 710 q 114 674 114 710 l 114 0 l 18 0 l 18 792 l 114 792 l 114 743 l 117 743 q 183 800 135 800 q 238 768 218 800 q 257 675 257 736 l 257 0 l 161 0 l 161 674 z "},"h":{"ha":276,"x_min":18,"x_max":257,"o":"m 161 674 q 138 710 161 710 q 114 674 114 710 l 114 0 l 18 0 l 18 1014 l 114 1014 l 114 743 l 117 743 q 183 800 135 800 q 238 768 218 800 q 257 675 257 736 l 257 0 l 161 0 l 161 674 z "},"m":{"ha":418,"x_min":18,"x_max":400,"o":"m 161 674 q 138 710 161 710 q 114 674 114 710 l 114 0 l 18 0 l 18 792 l 114 792 l 114 743 l 117 743 q 183 800 135 800 q 253 717 242 800 l 256 717 q 278 778 260 757 q 326 800 297 800 q 381 768 363 800 q 400 675 400 736 l 400 0 l 304 0 l 304 674 q 281 710 304 710 q 257 674 257 710 l 257 0 l 161 0 l 161 674 z "},"u":{"ha":276,"x_min":18,"x_max":257,"o":"m 114 118 q 138 82 114 82 q 161 118 161 82 l 161 792 l 257 792 l 257 0 l 161 0 l 161 49 l 158 49 q 90 -8 139 -8 q 37 24 56 -8 q 18 117 18 56 l 18 792 l 114 792 l 114 118 z "},"r":{"ha":276,"x_min":18,"x_max":257,"o":"m 160 674 q 136 710 160 710 q 114 674 114 710 l 114 0 l 18 0 l 18 792 l 114 792 l 114 743 l 117 743 q 183 800 135 800 q 238 768 219 800 q 257 675 257 736 l 257 467 l 160 467 l 160 674 z "},"i":{"ha":133,"x_min":18,"x_max":114,"o":"m 18 954 l 114 954 l 114 819 l 18 819 l 18 954 m 18 792 l 114 792 l 114 0 l 18 0 l 18 792 z "},"j":{"ha":133,"x_min":-14,"x_max":115,"o":"m 115 819 l 19 819 l 19 954 l 115 954 l 115 819 m 115 -106 q 111 -172 115 -147 q 95 -208 107 -196 q 64 -224 83 -221 q 15 -226 44 -226 l -14 -226 l -14 -140 q 15 -134 11 -140 q 19 -108 19 -128 l 19 792 l 115 792 l 115 -106 z "},"f":{"ha":165,"x_min":7,"x_max":158,"o":"m 29 704 l 7 704 l 7 792 l 29 792 l 29 881 q 33 953 29 926 q 47 994 36 981 q 77 1010 57 1007 q 131 1014 97 1014 l 158 1014 l 158 928 q 131 921 135 928 q 126 890 126 914 l 126 792 l 158 792 l 158 704 l 126 704 l 126 0 l 29 0 l 29 704 z "},"t":{"ha":172,"x_min":7,"x_max":165,"o":"m 126 944 l 126 792 l 165 792 l 165 704 l 126 704 l 126 119 q 131 93 126 100 q 165 86 136 86 l 165 0 l 131 0 q 81 3 100 0 q 49 16 61 6 q 33 47 38 26 q 29 104 29 68 l 29 704 l 7 704 l 7 792 l 29 792 l 29 944 l 126 944 z "},"v":{"ha":274,"x_min":3,"x_max":271,"o":"m 3 792 l 106 792 l 135 289 l 140 118 l 143 118 l 150 289 l 178 792 l 271 792 l 203 0 l 76 0 l 3 792 z "},"w":{"ha":447,"x_min":3,"x_max":443,"o":"m 443 792 l 381 0 l 251 0 l 228 515 l 225 663 l 221 663 l 218 515 l 196 0 l 67 0 l 3 792 l 106 792 l 126 289 l 131 118 l 133 118 l 140 289 l 169 792 l 278 792 l 306 289 l 313 118 l 315 118 l 319 289 l 340 792 l 443 792 z "},"k":{"ha":279,"x_min":18,"x_max":275,"o":"m 200 431 l 200 428 l 275 0 l 178 0 l 117 379 l 114 379 l 114 0 l 18 0 l 18 1014 l 114 1014 l 114 457 l 117 457 l 175 792 l 274 792 l 200 431 z "},"x":{"ha":268,"x_min":-1,"x_max":269,"o":"m 204 408 l 204 406 l 269 0 l 171 0 l 144 228 l 138 342 l 135 342 l 126 228 l 97 0 l -1 0 l 64 406 l 64 408 l 3 792 l 101 792 l 125 585 l 133 471 l 136 471 l 143 585 l 167 792 l 265 792 l 204 408 z "},"z":{"ha":231,"x_min":8,"x_max":222,"o":"m 222 704 l 107 88 l 221 88 l 221 0 l 8 0 l 8 81 l 124 704 l 15 704 l 15 792 l 222 792 l 222 704 z "},"y":{"ha":272,"x_min":1,"x_max":269,"o":"m 135 364 l 140 189 l 143 189 l 149 364 l 178 790 l 269 790 l 161 -222 l 68 -222 l 93 0 l 1 790 l 106 790 l 135 364 z "},",":{"ha":149,"x_min":24,"x_max":125,"o":"m 24 139 l 125 139 l 125 0 l 100 -107 l 49 -107 l 72 0 l 24 0 l 24 139 z "},"-":{"ha":204,"x_min":24,"x_max":181,"o":"m 181 424 l 24 424 l 24 517 l 181 517 l 181 424 z "},"+":{"ha":371,"x_min":24,"x_max":347,"o":"m 347 424 l 236 424 l 236 313 l 135 313 l 135 424 l 24 424 l 24 517 l 135 517 l 135 628 l 236 628 l 236 517 l 347 517 l 347 424 z "},"*":{"ha":243,"x_min":24,"x_max":219,"o":"m 75 881 l 24 890 l 46 956 l 93 933 l 86 986 l 156 986 l 149 933 l 197 956 l 219 890 l 168 881 l 204 842 l 147 801 l 121 849 l 96 801 l 39 842 l 75 881 z "},"^":{"ha":304,"x_min":24,"x_max":281,"o":"m 153 869 l 150 869 l 115 732 l 24 732 l 100 972 l 203 972 l 281 732 l 189 732 l 153 869 z "},"˜":{"ha":239,"x_min":24,"x_max":217,"o":"m 217 940 q 206 840 217 869 q 168 810 194 810 q 142 815 154 810 q 119 828 131 821 q 99 840 108 835 q 79 846 89 846 q 65 838 68 846 q 61 811 61 831 l 61 810 l 24 810 l 24 813 q 34 913 24 883 q 71 943 44 943 q 96 938 83 943 q 119 925 108 932 q 141 913 131 918 q 161 907 151 907 q 181 938 181 907 l 181 943 l 217 943 l 217 940 z "},"/":{"ha":271,"x_min":24,"x_max":247,"o":"m 24 -111 l 146 1014 l 247 1014 l 125 -111 l 24 -111 z "},"\\":{"ha":271,"x_min":24,"x_max":247,"o":"m 247 -111 l 146 -111 l 24 1014 l 125 1014 l 247 -111 z "},":":{"ha":163,"x_min":24,"x_max":125,"o":"m 24 139 l 125 139 l 125 0 l 24 0 l 24 139 m 24 694 l 125 694 l 125 556 l 24 556 l 24 694 z "},"<":{"ha":310,"x_min":24,"x_max":288,"o":"m 128 472 l 128 469 l 288 426 l 288 338 l 24 425 l 24 517 l 288 604 l 288 515 l 128 472 z "},"=":{"ha":351,"x_min":24,"x_max":329,"o":"m 329 496 l 24 496 l 24 589 l 329 589 l 329 496 m 329 342 l 24 342 l 24 435 l 329 435 l 329 342 z "},">":{"ha":310,"x_min":22,"x_max":286,"o":"m 182 469 l 182 472 l 22 515 l 22 604 l 286 517 l 286 425 l 22 338 l 22 426 l 182 469 z "},"!":{"ha":167,"x_min":24,"x_max":144,"o":"m 144 972 l 144 833 l 107 194 l 61 194 l 24 833 l 24 972 l 144 972 m 32 139 l 133 139 l 133 0 l 32 0 l 32 139 z "},"?":{"ha":297,"x_min":24,"x_max":274,"o":"m 93 299 q 106 417 93 368 q 133 510 118 467 q 160 598 147 554 q 172 699 172 642 l 172 850 q 149 888 172 888 q 125 850 125 888 l 125 604 l 24 604 l 24 856 q 58 947 24 914 q 149 981 92 981 q 239 947 204 981 q 274 856 274 914 l 274 699 q 261 579 274 629 q 234 486 249 529 q 207 399 219 443 q 194 299 194 356 l 194 194 l 93 194 l 93 299 m 93 139 l 194 139 l 194 0 l 93 0 l 93 139 z "},"'":{"ha":149,"x_min":24,"x_max":125,"o":"m 125 876 l 118 750 l 31 750 l 24 876 l 24 972 l 125 972 l 125 876 z "},"\"":{"ha":278,"x_min":24,"x_max":254,"o":"m 254 876 l 247 750 l 160 750 l 153 876 l 153 972 l 254 972 l 254 876 m 125 876 l 118 750 l 31 750 l 24 876 l 24 972 l 125 972 l 125 876 z "},"#":{"ha":393,"x_min":24,"x_max":371,"o":"m 64 300 l 24 300 l 24 389 l 69 389 l 81 583 l 38 583 l 38 672 l 85 672 l 103 972 l 204 972 l 188 672 l 233 672 l 250 972 l 353 972 l 335 672 l 371 672 l 371 583 l 331 583 l 319 389 l 357 389 l 357 300 l 314 300 l 297 0 l 194 0 l 213 300 l 165 300 l 149 0 l 47 0 l 64 300 m 217 389 l 228 583 l 182 583 l 171 389 l 217 389 z "},"@":{"ha":571,"x_min":24,"x_max":547,"o":"m 404 -122 q 285 -149 350 -149 q 189 -132 236 -149 q 105 -83 142 -115 q 46 -1 68 -50 q 24 113 24 47 l 24 669 q 46 783 24 735 q 105 865 68 832 q 189 914 142 897 q 285 931 236 931 q 381 914 333 931 q 465 865 428 897 q 524 783 501 832 q 547 669 547 735 l 547 118 q 515 26 547 60 q 428 -8 483 -8 q 354 15 383 -8 q 315 81 325 39 l 313 81 q 288 15 307 39 q 240 -8 269 -8 q 185 25 206 -8 q 165 117 165 58 l 165 643 q 185 735 165 701 q 240 768 206 768 q 306 704 290 768 l 308 704 l 308 754 l 404 754 l 404 122 q 428 82 404 82 q 451 119 451 82 l 451 669 q 438 744 451 713 q 401 798 424 776 q 348 830 378 819 q 288 840 318 840 q 226 829 256 840 q 172 797 196 818 q 134 742 149 775 q 119 664 119 708 l 119 114 q 133 39 119 71 q 171 -15 147 7 q 224 -47 194 -36 q 285 -58 254 -58 q 372 -35 332 -58 l 404 -122 m 308 642 q 285 679 308 679 q 261 642 261 679 l 261 118 q 285 82 261 82 q 308 118 308 82 l 308 642 z "},"$":{"ha":281,"x_min":15,"x_max":265,"o":"m 265 117 q 242 39 265 69 q 179 -3 219 8 l 192 -137 l 90 -137 l 103 -4 q 39 38 63 7 q 15 117 15 68 l 15 342 l 117 342 l 117 122 q 140 85 117 85 q 163 122 163 85 l 163 299 q 142 397 163 353 q 94 486 121 442 q 40 590 65 535 q 15 718 15 644 l 15 856 q 39 934 15 903 q 103 976 63 965 l 90 1110 l 192 1110 l 179 976 q 242 935 219 965 q 265 856 265 904 l 265 674 l 163 674 l 163 850 q 140 888 163 888 q 117 850 117 888 l 117 718 q 138 618 117 663 q 185 529 158 574 q 240 426 214 481 q 265 299 265 371 l 265 117 z "},"€":{"ha":329,"x_min":18,"x_max":310,"o":"m 208 850 q 185 888 208 888 q 161 850 161 888 l 161 607 l 282 607 l 268 529 l 161 529 l 161 485 l 268 485 l 254 407 l 161 407 l 161 122 q 185 86 161 86 q 208 122 208 86 l 208 356 l 310 356 l 310 117 q 276 25 310 58 q 186 -8 242 -8 q 94 25 128 -8 q 60 117 60 58 l 60 407 l 18 407 l 18 485 l 60 485 l 60 529 l 18 529 l 18 607 l 60 607 l 60 856 q 94 947 60 914 q 186 981 129 981 q 276 947 243 981 q 310 856 310 914 l 310 660 l 208 660 l 208 850 z "},"%":{"ha":681,"x_min":24,"x_max":657,"o":"m 261 540 q 228 449 261 482 q 143 415 196 415 q 57 449 90 415 q 24 540 24 482 l 24 856 q 57 947 24 914 q 143 981 90 981 q 228 947 196 981 q 261 856 261 914 l 261 540 m 497 972 l 599 972 l 182 0 l 82 0 l 497 972 m 165 854 q 143 890 165 890 q 119 854 119 890 l 119 542 q 143 506 119 506 q 165 542 165 506 l 165 854 m 657 117 q 624 25 657 58 q 539 -8 592 -8 q 451 25 485 -8 q 418 117 418 58 l 418 432 q 451 524 418 490 q 539 557 485 557 q 624 524 592 557 q 657 432 657 490 l 657 117 m 561 431 q 538 467 561 467 q 514 431 514 467 l 514 118 q 538 82 514 82 q 561 118 561 82 l 561 431 z "},"&":{"ha":315,"x_min":18,"x_max":296,"o":"m 268 672 l 268 525 l 296 525 l 296 432 l 268 432 l 268 0 l 167 0 l 167 56 l 164 56 q 96 -8 147 -8 q 40 25 61 -8 q 18 117 18 58 l 18 374 q 27 442 18 419 q 68 478 36 465 l 68 481 q 27 515 36 492 q 18 583 18 538 l 18 856 q 53 947 18 914 q 144 981 88 981 q 235 947 201 981 q 268 856 268 914 l 268 719 l 167 719 l 167 851 q 143 888 167 888 q 119 851 119 888 l 119 560 q 143 525 119 525 l 167 525 l 167 672 l 268 672 m 143 432 q 119 399 119 432 l 119 121 q 143 85 119 85 q 167 125 167 85 l 167 432 l 143 432 z "},"(":{"ha":203,"x_min":18,"x_max":183,"o":"m 111 -271 q 40 83 63 -79 q 18 401 18 246 q 40 717 18 554 q 111 1069 63 881 l 183 1058 q 138 721 156 883 q 119 403 119 558 q 124 254 119 329 q 138 99 129 179 q 158 -71 146 18 q 183 -260 169 -160 l 111 -271 z "},")":{"ha":203,"x_min":18,"x_max":183,"o":"m 90 1069 q 161 715 139 878 q 183 397 183 553 q 161 81 183 244 q 90 -271 139 -82 l 18 -260 q 64 78 46 -85 q 82 396 82 240 q 77 544 82 469 q 64 700 72 619 q 44 869 56 781 q 18 1058 32 958 l 90 1069 z "},"{":{"ha":313,"x_min":18,"x_max":293,"o":"m 217 575 q 194 436 217 478 q 114 394 171 394 l 114 390 q 194 349 171 390 q 217 210 217 307 l 217 -85 q 229 -159 217 -140 q 267 -178 242 -178 l 293 -178 l 293 -271 l 256 -271 q 197 -262 224 -271 q 153 -231 171 -253 q 125 -174 135 -210 q 115 -83 115 -137 l 115 250 q 98 322 115 297 q 18 346 81 346 l 18 439 q 98 463 81 439 q 115 535 115 488 l 115 867 q 126 958 115 921 q 156 1016 138 994 q 201 1047 175 1038 q 256 1056 226 1056 l 293 1056 l 293 963 l 267 963 q 245 960 254 963 q 230 947 236 957 q 220 919 224 938 q 217 869 217 901 l 217 575 z "},"|":{"ha":149,"x_min":24,"x_max":125,"o":"m 24 -257 l 24 1042 l 125 1042 l 125 -257 l 24 -257 z "},"}":{"ha":313,"x_min":19,"x_max":294,"o":"m 96 210 q 119 349 96 307 q 199 390 142 390 l 199 394 q 119 436 142 394 q 96 575 96 478 l 96 869 q 83 944 96 925 q 46 962 71 962 l 19 962 l 19 1056 l 57 1056 q 115 1047 89 1056 q 160 1016 142 1037 q 188 958 178 994 q 197 868 197 922 l 197 535 q 215 463 197 488 q 294 439 232 439 l 294 346 q 215 322 232 346 q 197 250 197 297 l 197 -82 q 186 -173 197 -136 q 156 -231 175 -210 q 112 -262 138 -253 q 57 -271 86 -271 l 19 -271 l 19 -178 l 46 -178 q 67 -175 58 -178 q 83 -162 76 -172 q 92 -135 89 -153 q 96 -85 96 -117 l 96 210 z "},"[":{"ha":204,"x_min":18,"x_max":185,"o":"m 18 -271 l 18 1056 l 185 1056 l 185 963 l 119 963 l 119 -178 l 185 -178 l 185 -271 l 18 -271 z "},"]":{"ha":204,"x_min":19,"x_max":186,"o":"m 186 1056 l 186 -271 l 19 -271 l 19 -178 l 85 -178 l 85 962 l 19 962 l 19 1056 l 186 1056 z "},"‘":{"ha":149,"x_min":22,"x_max":125,"o":"m 125 726 l 24 726 l 24 865 l 49 972 l 100 972 l 76 865 l 125 865 l 125 726 z "},"’":{"ha":149,"x_min":24,"x_max":126,"o":"m 24 972 l 125 972 l 125 833 l 100 726 l 49 726 l 72 833 l 24 833 l 24 972 z "},"“":{"ha":279,"x_min":22,"x_max":257,"o":"m 125 726 l 24 726 l 24 865 l 49 972 l 100 972 l 76 865 l 125 865 l 125 726 m 257 726 l 156 726 l 156 865 l 181 972 l 232 972 l 208 865 l 257 865 l 257 726 z "},"”":{"ha":279,"x_min":22,"x_max":256,"o":"m 154 972 l 256 972 l 256 833 l 231 726 l 179 726 l 203 833 l 154 833 l 154 972 m 22 972 l 124 972 l 124 833 l 99 726 l 47 726 l 71 833 l 22 833 l 22 972 z "},"‚":{"ha":149,"x_min":24,"x_max":125,"o":"m 24 139 l 125 139 l 125 0 l 100 -107 l 49 -107 l 72 0 l 24 0 l 24 139 z "},"„":{"ha":278,"x_min":24,"x_max":254,"o":"m 24 139 l 125 139 l 125 0 l 100 -107 l 49 -107 l 72 0 l 24 0 l 24 139 m 153 139 l 254 139 l 254 0 l 229 -107 l 178 -107 l 201 0 l 153 0 l 153 139 z "},"•":{"ha":186,"x_min":25,"x_max":164,"o":"m 25 504 q 45 553 25 533 q 94 574 65 574 q 144 553 124 574 q 164 504 164 533 q 144 455 164 475 q 94 435 124 435 q 45 455 65 435 q 25 504 25 475 z "},"_":{"ha":338,"x_min":24,"x_max":315,"o":"m 315 -93 l 24 -93 l 24 0 l 315 0 l 315 -93 z "},"–":{"ha":601,"x_min":24,"x_max":579,"o":"m 579 424 l 24 424 l 24 517 l 579 517 l 579 424 z "},"—":{"ha":935,"x_min":24,"x_max":913,"o":"m 913 424 l 24 424 l 24 517 l 913 517 l 913 424 z "},"¯":{"ha":213,"x_min":24,"x_max":190,"o":"m 190 814 l 24 814 l 24 911 l 190 911 l 190 814 z "},"¬":{"ha":436,"x_min":24,"x_max":413,"o":"m 24 972 l 413 972 l 413 0 l 24 0 l 24 972 m 218 601 l 307 899 l 126 899 l 218 601 m 339 208 l 339 774 l 253 488 l 339 208 m 97 199 l 183 488 l 97 768 l 97 199 m 128 74 l 311 74 l 218 374 l 128 74 z "},"™":{"ha":361,"x_min":24,"x_max":338,"o":"m 124 926 l 99 926 l 99 681 l 49 681 l 49 926 l 24 926 l 24 972 l 124 972 l 124 926 m 338 681 l 289 681 l 290 868 l 292 926 l 289 926 l 286 868 l 272 681 l 201 681 l 183 926 l 181 926 l 182 868 l 183 681 l 135 681 l 135 972 l 225 972 l 235 803 l 236 746 l 239 746 l 240 803 l 249 972 l 338 972 l 338 681 z "},"®":{"ha":599,"x_min":24,"x_max":575,"o":"m 24 706 q 47 825 24 774 q 110 910 71 876 q 199 962 149 944 q 300 979 249 979 q 401 962 351 979 q 489 910 450 944 q 551 825 528 876 q 575 706 575 774 l 575 265 q 551 146 575 197 q 489 60 528 94 q 401 9 450 26 q 300 -8 351 -8 q 199 9 249 -8 q 110 60 149 26 q 47 146 71 94 q 24 265 24 197 l 24 706 m 118 265 q 133 184 118 219 q 174 126 149 149 q 233 91 200 103 q 299 79 265 79 q 366 91 333 79 q 424 126 399 103 q 465 184 450 149 q 481 265 481 219 l 481 706 q 465 787 481 751 q 424 845 450 822 q 366 880 399 868 q 300 892 333 892 q 233 880 265 892 q 174 845 200 868 q 133 787 149 822 q 118 706 118 751 l 118 265 m 322 413 q 299 446 322 446 l 275 446 l 275 151 l 174 151 l 174 819 l 300 819 q 424 699 424 819 l 424 593 q 422 551 424 568 q 413 524 419 535 q 398 506 407 513 q 374 494 389 500 l 374 492 q 413 459 403 481 q 424 388 424 438 l 424 278 q 426 214 424 242 q 439 154 428 186 l 439 151 l 336 151 q 326 211 329 183 q 322 278 322 239 l 322 413 m 322 692 q 317 718 322 711 q 299 725 311 725 l 275 725 l 275 539 l 299 539 q 322 574 322 539 l 322 692 z "},"©":{"ha":599,"x_min":24,"x_max":575,"o":"m 24 706 q 47 825 24 774 q 110 910 71 876 q 199 962 149 944 q 300 979 249 979 q 401 962 351 979 q 489 910 450 944 q 551 825 528 876 q 575 706 575 774 l 575 267 q 551 147 575 199 q 489 60 528 94 q 401 9 450 26 q 300 -8 351 -8 q 199 9 249 -8 q 110 60 149 26 q 47 147 71 94 q 24 267 24 199 l 24 706 m 118 267 q 134 185 118 221 q 176 126 150 150 q 234 91 201 103 q 300 79 267 79 q 366 91 333 79 q 424 126 399 103 q 465 185 450 150 q 481 267 481 221 l 481 706 q 465 787 481 751 q 424 845 450 822 q 366 880 399 868 q 300 892 333 892 q 234 880 267 892 q 176 845 201 868 q 134 787 150 822 q 118 706 118 751 l 118 267 m 324 707 q 300 744 324 744 q 276 707 276 744 l 276 265 q 300 228 276 228 q 324 265 324 228 l 324 426 l 425 426 l 425 260 q 391 168 425 201 q 300 135 357 135 q 209 168 243 135 q 175 260 175 201 l 175 713 q 210 804 175 771 q 301 838 244 838 q 392 804 358 838 q 425 713 425 771 l 425 572 l 324 572 l 324 707 z "},"¤":{"ha":436,"x_min":24,"x_max":413,"o":"m 24 972 l 413 972 l 413 0 l 24 0 l 24 972 m 218 601 l 307 899 l 126 899 l 218 601 m 339 208 l 339 774 l 253 488 l 339 208 m 97 199 l 183 488 l 97 768 l 97 199 m 128 74 l 311 74 l 218 374 l 128 74 z "},"¢":{"ha":276,"x_min":18,"x_max":257,"o":"m 160 674 q 136 710 160 710 q 114 674 114 710 l 114 118 q 136 82 114 82 q 160 118 160 82 l 160 338 l 257 338 l 257 117 q 235 39 257 69 q 176 -3 214 8 l 189 -137 l 86 -137 l 99 -3 q 40 39 61 8 q 18 117 18 69 l 18 675 q 40 753 18 722 q 99 794 61 783 l 86 929 l 189 929 l 176 794 q 235 753 214 783 q 257 675 257 722 l 257 490 l 160 490 l 160 674 z "},"£":{"ha":338,"x_min":18,"x_max":319,"o":"m 208 850 q 185 886 208 886 q 161 850 161 886 l 161 432 l 292 432 l 292 339 l 161 339 l 161 229 q 156 146 161 176 q 138 93 150 115 l 319 93 l 319 0 l 18 0 l 18 92 q 52 149 44 119 q 60 231 60 178 l 60 339 l 18 339 l 18 432 l 60 432 l 60 856 q 94 947 60 914 q 186 979 129 979 q 276 947 243 979 q 310 854 310 914 l 310 603 l 208 603 l 208 850 z "},"¥":{"ha":274,"x_min":0,"x_max":275,"o":"m 199 397 l 261 397 l 261 304 l 189 304 l 189 268 l 261 268 l 261 175 l 189 175 l 189 0 l 86 0 l 86 175 l 13 175 l 13 268 l 86 268 l 86 304 l 13 304 l 13 397 l 76 397 l 0 972 l 104 972 l 131 638 l 136 499 l 139 499 l 144 638 l 169 972 l 275 972 l 199 397 z "},"ƒ":{"ha":186,"x_min":18,"x_max":181,"o":"m 18 -206 q 47 -199 42 -206 q 51 -168 51 -192 l 51 722 l 29 722 l 29 810 l 51 810 l 51 899 q 55 972 51 944 q 69 1012 58 999 q 99 1028 79 1025 q 151 1032 118 1032 l 181 1032 l 181 946 q 152 939 157 946 q 147 908 147 932 l 147 810 l 181 810 l 181 722 l 147 722 l 147 -158 q 144 -231 147 -204 q 131 -272 142 -258 q 101 -288 121 -285 q 47 -292 81 -292 l 18 -292 l 18 -206 z "},"−":{"ha":371,"x_min":24,"x_max":347,"o":"m 347 424 l 24 424 l 24 517 l 347 517 l 347 424 z "},"±":{"ha":371,"x_min":24,"x_max":347,"o":"m 347 485 l 236 485 l 236 372 l 135 372 l 135 485 l 24 485 l 24 578 l 135 578 l 135 689 l 236 689 l 236 578 l 347 578 l 347 485 m 347 229 l 24 229 l 24 322 l 347 322 l 347 229 z "},"×":{"ha":382,"x_min":24,"x_max":358,"o":"m 292 304 l 190 406 l 93 307 l 26 372 l 125 471 l 24 572 l 90 638 l 190 536 l 289 635 l 356 569 l 257 471 l 358 369 l 292 304 z "},"÷":{"ha":436,"x_min":24,"x_max":414,"o":"m 413 424 l 24 424 l 24 517 l 413 517 l 413 424 m 173 681 l 264 681 l 264 556 l 173 556 l 173 681 m 173 388 l 264 388 l 264 263 l 173 263 l 173 388 z "},"¦":{"ha":149,"x_min":24,"x_max":125,"o":"m 24 476 l 24 1042 l 125 1042 l 125 476 l 24 476 m 24 -257 l 24 310 l 125 310 l 125 -257 l 24 -257 z "},"…":{"ha":465,"x_min":24,"x_max":442,"o":"m 24 139 l 125 139 l 125 0 l 24 0 l 24 139 m 181 139 l 282 139 l 282 0 l 181 0 l 181 139 m 340 139 l 442 139 l 442 0 l 340 0 l 340 139 z "},"·":{"ha":149,"x_min":24,"x_max":125,"o":"m 24 528 l 125 528 l 125 389 l 24 389 l 24 528 z "},"¡":{"ha":167,"x_min":24,"x_max":144,"o":"m 135 440 l 135 431 l 33 431 l 33 440 l 135 440 m 24 347 l 61 425 l 107 425 l 144 347 l 144 332 l 24 332 l 24 347 z "},"¿":{"ha":297,"x_min":99,"x_max":114,"o":"m 113 431 l 108 431 l 108 440 l 113 440 l 113 431 m 113 407 q 107 380 113 388 q 101 354 101 372 l 101 342 q 106 335 101 335 q 111 342 111 335 l 111 372 l 114 372 l 114 339 q 106 331 114 331 q 99 339 99 331 l 99 354 q 103 381 99 374 q 108 407 108 389 l 108 425 l 113 425 l 113 407 z "},"°":{"ha":226,"x_min":24,"x_max":204,"o":"m 24 890 q 50 954 24 928 q 114 981 76 981 q 178 954 151 981 q 204 890 204 928 q 178 827 204 854 q 114 800 151 800 q 50 827 76 800 q 24 890 24 854 m 71 890 q 83 860 71 872 q 114 847 96 847 q 144 860 132 847 q 157 890 157 872 q 144 921 157 908 q 114 933 132 933 q 83 921 96 933 q 71 890 71 908 z "},"ª":{"ha":215,"x_min":24,"x_max":192,"o":"m 92 778 l 24 778 l 24 893 q 47 957 24 933 q 107 981 69 981 q 168 957 144 981 q 192 893 192 933 l 192 419 l 124 419 l 124 463 l 121 463 q 74 413 110 413 q 24 493 24 413 l 24 639 q 28 681 24 664 q 43 712 32 699 q 74 735 54 725 q 124 758 93 746 l 124 892 q 108 918 124 918 q 92 892 92 918 l 92 778 m 124 699 q 96 672 100 686 q 92 631 92 658 l 92 500 q 108 475 92 475 q 124 501 124 475 l 124 699 z "},"º":{"ha":215,"x_min":24,"x_max":192,"o":"m 192 492 q 169 426 192 450 q 108 403 146 403 q 47 427 71 403 q 24 492 24 451 l 24 893 q 47 957 24 933 q 108 981 71 981 q 169 957 146 981 q 192 893 192 933 l 192 492 m 124 892 q 108 917 124 917 q 92 892 92 917 l 92 493 q 108 467 92 467 q 124 493 124 467 l 124 892 z "},"¹":{"ha":178,"x_min":24,"x_max":154,"o":"m 124 482 l 154 482 l 154 422 l 24 422 l 24 482 l 54 482 l 54 875 l 24 875 l 24 928 q 60 937 53 928 q 68 972 68 946 l 124 972 l 124 482 z "},"²":{"ha":215,"x_min":24,"x_max":192,"o":"m 24 489 q 42 595 24 551 q 82 674 61 639 q 110 726 97 701 q 122 779 122 751 l 122 900 q 107 922 122 922 q 92 901 92 922 l 92 768 l 24 768 l 24 904 q 46 961 24 942 q 106 981 68 981 q 168 960 144 981 q 192 901 192 939 l 192 783 q 177 717 192 749 q 147 660 163 686 q 109 584 126 624 q 92 492 92 544 l 92 486 l 192 486 l 192 422 l 24 422 l 24 489 z "},"³":{"ha":215,"x_min":24,"x_max":190,"o":"m 92 789 l 24 789 l 24 894 q 47 958 24 935 q 107 981 69 981 q 167 958 144 981 q 190 894 190 935 l 190 771 q 185 735 190 747 q 158 715 179 722 l 158 714 q 185 695 179 707 q 190 658 190 683 l 190 494 q 167 431 190 454 q 107 408 144 408 q 47 431 69 408 q 24 494 24 454 l 24 621 l 92 621 l 92 483 q 107 463 92 463 q 122 483 122 463 l 122 664 q 117 683 122 678 q 97 688 113 688 l 82 688 l 82 742 l 97 742 q 117 747 113 742 q 122 767 122 751 l 122 906 q 107 926 122 926 q 92 906 92 926 l 92 789 z "},"⁴":{"ha":231,"x_min":24,"x_max":207,"o":"m 24 546 l 85 972 l 188 972 l 188 556 l 207 556 l 207 492 l 188 492 l 188 421 l 119 421 l 119 492 l 24 492 l 24 546 m 119 556 l 129 910 l 128 910 l 86 556 l 119 556 z "},"⁄":{"ha":314,"x_min":24,"x_max":290,"o":"m 24 0 l 215 972 l 290 972 l 99 0 l 24 0 z "},"¼":{"ha":503,"x_min":24,"x_max":479,"o":"m 124 482 l 154 482 l 154 422 l 24 422 l 24 482 l 54 482 l 54 875 l 24 875 l 24 928 q 60 937 53 928 q 68 972 68 946 l 124 972 l 124 482 m 117 0 l 308 972 l 383 972 l 192 0 l 117 0 m 296 125 l 357 551 l 460 551 l 460 135 l 479 135 l 479 71 l 460 71 l 460 0 l 392 0 l 392 71 l 296 71 l 296 125 m 392 135 l 401 489 l 400 489 l 358 135 l 392 135 z "},"½":{"ha":529,"x_min":24,"x_max":506,"o":"m 117 0 l 308 972 l 383 972 l 192 0 l 117 0 m 338 65 q 356 172 338 128 q 396 250 375 215 q 424 303 411 278 q 436 356 436 328 l 436 476 q 421 499 436 499 q 406 478 406 499 l 406 344 l 338 344 l 338 481 q 360 538 338 518 q 419 557 382 557 q 482 536 458 557 q 506 478 506 515 l 506 360 q 491 294 506 325 q 461 236 476 263 q 423 160 440 200 q 406 68 406 121 l 406 63 l 506 63 l 506 -1 l 338 -1 l 338 65 m 124 482 l 154 482 l 154 422 l 24 422 l 24 482 l 54 482 l 54 875 l 24 875 l 24 928 q 60 937 53 928 q 68 972 68 946 l 124 972 l 124 482 z "},"¾":{"ha":517,"x_min":24,"x_max":493,"o":"m 139 0 l 331 972 l 406 972 l 214 0 l 139 0 m 310 108 l 371 535 l 474 535 l 474 118 l 493 118 l 493 54 l 474 54 l 474 -17 l 406 -17 l 406 54 l 310 54 l 310 108 m 406 118 l 415 472 l 414 472 l 372 118 l 406 118 m 92 789 l 24 789 l 24 894 q 47 958 24 935 q 107 981 69 981 q 167 958 144 981 q 190 894 190 935 l 190 771 q 185 735 190 747 q 158 715 179 722 l 158 714 q 185 695 179 707 q 190 658 190 683 l 190 494 q 167 431 190 454 q 107 408 144 408 q 47 431 69 408 q 24 494 24 454 l 24 621 l 92 621 l 92 483 q 107 463 92 463 q 122 483 122 463 l 122 664 q 117 683 122 678 q 97 688 113 688 l 82 688 l 82 742 l 97 742 q 117 747 113 742 q 122 767 122 751 l 122 906 q 107 926 122 926 q 92 906 92 926 l 92 789 z "},"‰":{"ha":965,"x_min":24,"x_max":942,"o":"m 261 540 q 228 449 261 482 q 143 415 196 415 q 57 449 90 415 q 24 540 24 482 l 24 856 q 57 947 24 914 q 143 981 90 981 q 228 947 196 981 q 261 856 261 914 l 261 540 m 497 972 l 599 972 l 182 0 l 82 0 l 497 972 m 165 854 q 143 890 165 890 q 119 854 119 890 l 119 542 q 143 506 119 506 q 165 542 165 506 l 165 854 m 657 117 q 624 25 657 58 q 539 -8 592 -8 q 451 25 485 -8 q 418 117 418 58 l 418 432 q 451 524 418 490 q 539 557 485 557 q 624 524 592 557 q 657 432 657 490 l 657 117 m 942 117 q 909 25 942 58 q 824 -8 876 -8 q 738 25 771 -8 q 704 117 704 58 l 704 432 q 738 524 704 490 q 824 557 771 557 q 909 524 876 557 q 942 432 942 490 l 942 117 m 561 431 q 538 467 561 467 q 514 431 514 467 l 514 118 q 538 82 514 82 q 561 118 561 82 l 561 431 m 846 431 q 824 467 846 467 q 800 431 800 467 l 800 118 q 824 82 800 82 q 846 118 846 82 l 846 431 z "},"μ":{"ha":436,"x_min":24,"x_max":413,"o":"m 24 972 l 413 972 l 413 0 l 24 0 l 24 972 m 218 601 l 307 899 l 126 899 l 218 601 m 339 208 l 339 774 l 253 488 l 339 208 m 97 199 l 183 488 l 97 768 l 97 199 m 128 74 l 311 74 l 218 374 l 128 74 z "},"¶":{"ha":403,"x_min":24,"x_max":379,"o":"m 278 -83 l 278 972 l 379 972 l 379 -83 l 278 -83 m 129 -83 l 129 463 q 81 476 101 463 q 49 518 61 489 q 30 595 36 547 q 24 713 24 643 q 31 836 24 786 q 53 917 39 886 q 88 960 67 947 q 136 972 110 972 l 232 972 l 232 -83 l 129 -83 z "},"§":{"ha":285,"x_min":24,"x_max":261,"o":"m 261 292 q 256 249 261 268 q 242 214 250 229 q 261 129 261 175 l 261 -15 q 228 -107 261 -74 q 142 -140 194 -140 q 56 -107 89 -140 q 24 -15 24 -74 l 24 147 l 119 147 l 119 -14 q 143 -50 119 -50 q 165 -14 165 -50 l 165 129 q 146 197 165 165 q 103 260 126 228 q 49 338 75 296 q 24 438 24 381 l 24 549 q 32 601 24 578 q 56 639 40 624 q 32 690 40 663 q 24 750 24 718 l 24 856 q 57 947 24 914 q 143 981 90 981 q 228 947 196 981 q 261 856 261 914 l 261 731 l 165 731 l 165 854 q 143 890 165 890 q 119 854 119 890 l 119 750 q 139 682 119 714 q 182 618 158 650 q 236 539 211 582 q 261 442 261 496 l 261 292 m 165 442 q 152 497 165 471 q 119 547 139 524 l 119 438 q 133 381 119 407 q 165 329 146 354 l 165 442 z "},"†":{"ha":288,"x_min":24,"x_max":264,"o":"m 194 972 l 194 792 l 264 792 l 264 699 l 194 699 l 194 0 l 93 0 l 93 699 l 24 699 l 24 792 l 93 792 l 93 972 l 194 972 z "},"‡":{"ha":288,"x_min":24,"x_max":264,"o":"m 24 792 l 93 792 l 93 972 l 194 972 l 194 792 l 264 792 l 264 699 l 194 699 l 194 274 l 264 274 l 264 181 l 194 181 l 194 0 l 93 0 l 93 181 l 24 181 l 24 274 l 93 274 l 93 699 l 24 699 l 24 792 z "},"~":{"ha":310,"x_min":24,"x_max":286,"o":"m 286 557 q 271 453 286 486 q 219 421 256 421 q 186 428 203 421 q 154 442 169 435 q 126 457 139 450 q 100 464 113 464 q 76 429 76 464 l 76 422 l 24 422 l 24 424 q 41 529 24 493 q 93 565 58 565 q 124 559 108 565 q 156 544 140 553 q 186 530 172 536 q 213 524 200 524 q 236 557 236 524 l 236 565 l 286 565 l 286 557 z "},"‹":{"ha":171,"x_min":24,"x_max":149,"o":"m 69 565 l 149 565 l 101 399 l 149 232 l 69 232 l 24 399 l 69 565 z "},"›":{"ha":171,"x_min":22,"x_max":147,"o":"m 101 232 l 22 232 l 69 399 l 22 565 l 101 565 l 147 399 l 101 232 z "},"«":{"ha":288,"x_min":24,"x_max":264,"o":"m 69 565 l 149 565 l 101 399 l 149 232 l 69 232 l 24 399 l 69 565 m 185 565 l 264 565 l 217 399 l 264 232 l 185 232 l 139 399 l 185 565 z "},"»":{"ha":288,"x_min":24,"x_max":264,"o":"m 218 232 l 139 232 l 186 399 l 139 565 l 218 565 l 264 399 l 218 232 m 103 232 l 24 232 l 71 399 l 24 565 l 103 565 l 149 399 l 103 232 z "},"˘":{"ha":263,"x_min":24,"x_max":240,"o":"m 100 947 q 132 896 100 896 q 163 947 163 896 l 240 947 q 213 840 240 872 q 132 807 185 807 q 51 840 79 807 q 24 947 24 872 l 100 947 z "},"˙":{"ha":139,"x_min":24,"x_max":117,"o":"m 24 929 l 117 929 l 117 808 l 24 808 l 24 929 z "},"˚":{"ha":224,"x_min":24,"x_max":201,"o":"m 24 878 q 113 964 24 964 q 201 876 201 964 q 113 790 201 790 q 24 878 24 790 m 83 878 q 113 849 83 849 q 142 876 142 849 q 113 906 142 906 q 83 878 83 906 z "},"˛":{"ha":169,"x_min":25,"x_max":146,"o":"m 146 -14 q 110 -26 126 -14 q 94 -54 94 -37 q 105 -74 94 -67 q 131 -81 115 -81 q 146 -79 142 -81 l 146 -171 q 130 -174 139 -174 q 113 -175 121 -175 q 48 -153 71 -175 q 25 -100 25 -132 q 58 -34 25 -62 q 146 -6 90 -6 l 146 -14 z "},"ˆ":{"ha":214,"x_min":24,"x_max":190,"o":"m 24 794 l 57 961 l 157 961 l 190 794 l 124 794 l 108 888 l 106 888 l 90 794 l 24 794 z "},"ˇ":{"ha":265,"x_min":75,"x_max":242,"o":"m 242 960 l 208 793 l 108 793 l 75 960 l 142 960 l 157 867 l 160 867 l 175 960 l 242 960 z "},"ı":{"ha":133,"x_min":18,"x_max":114,"o":"m 18 792 l 114 792 l 114 0 l 18 0 l 18 792 z "},"´":{"ha":157,"x_min":24,"x_max":135,"o":"m 24 794 l 42 961 l 135 961 l 94 794 l 24 794 z "},"`":{"ha":157,"x_min":22,"x_max":133,"o":"m 22 961 l 115 961 l 133 794 l 63 794 l 22 961 z "},"¨":{"ha":208,"x_min":24,"x_max":185,"o":"m 24 929 l 93 929 l 93 808 l 24 808 l 24 929 m 115 929 l 185 929 l 185 808 l 115 808 l 115 929 z "},"¸":{"ha":224,"x_min":24,"x_max":200,"o":"m 118 3 l 110 -29 q 175 -51 150 -29 q 200 -104 200 -72 q 165 -164 200 -140 q 76 -187 131 -187 q 24 -181 54 -187 l 24 -108 q 60 -112 40 -112 q 113 -90 113 -112 q 95 -71 113 -78 q 50 -64 78 -64 l 65 3 l 118 3 z "},"ﬁ":{"ha":299,"x_min":7,"x_max":279,"o":"m 29 704 l 7 704 l 7 792 l 29 792 l 29 881 q 33 953 29 926 q 47 994 36 981 q 77 1010 57 1007 q 131 1014 97 1014 l 158 1014 l 158 928 q 131 921 135 928 q 126 890 126 914 l 126 792 l 158 792 l 158 704 l 126 704 l 126 0 l 29 0 l 29 704 m 183 954 l 279 954 l 279 819 l 183 819 l 183 954 m 183 792 l 279 792 l 279 0 l 183 0 l 183 792 z "},"ﬂ":{"ha":299,"x_min":7,"x_max":279,"o":"m 29 704 l 7 704 l 7 792 l 29 792 l 29 881 q 33 953 29 926 q 47 994 36 981 q 77 1010 57 1007 q 131 1014 97 1014 l 158 1014 l 158 928 q 131 921 135 928 q 126 890 126 914 l 126 792 l 158 792 l 158 704 l 126 704 l 126 0 l 29 0 l 29 704 m 183 1014 l 279 1014 l 279 0 l 183 0 l 183 1014 z "},"Þ":{"ha":288,"x_min":18,"x_max":268,"o":"m 268 338 q 240 248 268 279 q 144 217 211 217 l 119 217 l 119 0 l 18 0 l 18 972 l 119 972 l 119 771 l 144 771 q 240 740 211 771 q 268 650 268 710 l 268 338 m 167 643 q 161 670 167 663 q 143 678 156 678 l 119 678 l 119 311 l 143 311 q 161 318 156 311 q 167 344 167 325 l 167 643 z "},"þ":{"ha":276,"x_min":18,"x_max":257,"o":"m 114 1014 l 114 743 l 117 743 q 183 800 135 800 q 238 768 219 800 q 257 675 257 736 l 257 117 q 238 24 257 56 q 185 -8 219 -8 q 142 7 160 -8 q 117 50 125 22 l 114 50 l 114 -222 l 18 -222 l 18 1014 l 114 1014 m 161 674 q 138 710 161 710 q 114 674 114 710 l 114 118 q 138 82 114 82 q 161 118 161 82 l 161 674 z "},"ß":{"ha":283,"x_min":18,"x_max":268,"o":"m 167 853 q 143 888 167 888 l 142 888 q 119 853 119 888 l 119 0 l 18 0 l 18 860 q 142 981 18 981 l 144 981 q 238 951 207 981 q 268 860 268 922 l 268 626 q 259 556 268 579 q 218 522 250 533 l 218 519 q 259 485 250 508 q 268 415 268 463 l 268 121 q 238 29 268 58 q 144 0 207 0 l 139 0 l 139 93 l 144 93 q 167 128 167 93 l 167 440 q 162 467 167 460 q 143 474 157 474 l 139 474 l 139 568 l 143 568 q 167 601 167 567 l 167 853 z "},"ð":{"ha":276,"x_min":18,"x_max":257,"o":"m 35 1024 q 158 956 113 999 l 208 988 l 236 946 l 192 917 q 247 766 236 853 q 257 572 257 679 l 257 114 q 224 24 257 56 q 139 -8 192 -8 q 51 25 85 -8 q 18 117 18 58 l 18 675 q 40 767 18 733 q 97 800 61 800 q 156 760 136 800 l 158 760 q 147 820 154 792 q 129 875 140 849 l 89 849 l 60 889 l 104 919 q 19 992 71 965 l 35 1024 m 161 674 q 138 710 161 710 q 114 674 114 710 l 114 118 q 138 82 114 82 q 161 118 161 82 l 161 674 z "},"Æ":{"ha":343,"x_min":0,"x_max":335,"o":"m 321 878 l 272 878 l 272 544 l 328 544 l 328 451 l 272 451 l 272 93 l 335 93 l 335 0 l 171 0 l 171 247 l 121 247 l 99 0 l 0 0 l 103 972 l 321 972 l 321 878 m 171 340 l 171 838 l 168 838 l 156 624 l 131 340 l 171 340 z "},"Œ":{"ha":340,"x_min":18,"x_max":331,"o":"m 317 879 l 268 879 l 268 546 l 324 546 l 324 451 l 268 451 l 268 93 l 331 93 l 331 0 l 144 0 q 52 33 86 0 q 18 125 18 67 l 18 847 q 53 939 18 906 q 144 972 88 972 l 317 972 l 317 879 m 143 879 q 119 843 119 879 l 119 129 q 143 93 119 93 l 167 93 l 167 879 l 143 879 z "},"æ":{"ha":418,"x_min":18,"x_max":400,"o":"m 165 72 q 138 13 158 35 q 89 -8 118 -8 q 36 22 54 -8 q 18 107 18 51 l 18 289 q 24 350 18 325 q 45 394 29 375 q 89 428 61 413 q 161 460 117 443 l 161 674 q 138 710 161 710 q 114 674 114 710 l 114 508 l 18 508 l 18 675 q 49 767 18 733 q 131 800 81 800 q 208 765 181 800 l 211 765 q 288 800 239 800 q 369 767 338 800 q 400 675 400 733 l 400 376 l 257 376 l 257 118 q 281 81 257 81 q 304 118 304 81 l 304 310 l 400 310 l 400 117 q 368 25 400 58 q 282 -8 336 -8 q 208 13 238 -8 q 168 72 179 35 l 165 72 m 304 674 q 281 710 304 710 q 257 674 257 710 l 257 465 l 304 465 l 304 674 m 161 375 q 137 359 146 367 q 122 341 128 351 q 115 315 117 331 q 114 278 114 300 l 114 117 q 138 81 114 81 q 161 118 161 81 l 161 375 z "},"œ":{"ha":418,"x_min":18,"x_max":400,"o":"m 400 310 l 400 117 q 369 25 400 58 q 288 -8 338 -8 q 211 26 239 -8 l 208 26 q 133 -8 181 -8 q 50 26 82 -8 q 18 117 18 60 l 18 675 q 49 765 18 731 q 133 800 81 800 q 208 765 182 800 l 211 765 q 288 800 240 800 q 369 766 339 800 q 400 675 400 732 l 400 376 l 257 376 l 257 118 q 281 82 257 82 q 304 118 304 82 l 304 310 l 400 310 m 161 674 q 138 710 161 710 q 114 674 114 710 l 114 118 q 138 82 114 82 q 161 118 161 82 l 161 674 m 304 674 q 281 710 304 710 q 257 674 257 710 l 257 465 l 304 465 l 304 674 z "},"Ø":{"ha":288,"x_min":17,"x_max":268,"o":"m 268 117 q 234 25 268 58 q 143 -8 200 -8 q 63 17 94 -8 l 57 -8 l 18 1 l 29 57 q 20 85 24 69 q 17 117 17 100 l 17 856 q 52 947 17 914 q 144 981 88 981 q 222 957 190 981 l 228 981 l 268 971 l 256 915 q 268 856 268 889 l 268 117 m 165 850 q 143 888 165 888 q 119 850 119 888 l 119 476 l 165 693 l 165 850 m 119 122 q 143 85 119 85 q 165 122 165 85 l 165 496 l 119 282 l 119 122 z "},"ø":{"ha":276,"x_min":18,"x_max":257,"o":"m 257 117 q 224 25 257 58 q 139 -8 192 -8 q 63 15 94 -8 l 57 -8 l 18 1 l 31 54 q 18 117 18 82 l 18 675 q 51 767 18 733 q 139 800 85 800 q 211 779 182 800 l 217 800 l 257 790 l 244 739 q 257 675 257 713 l 257 117 m 161 674 q 138 710 161 710 q 114 674 114 710 l 114 388 l 161 578 l 161 674 m 114 118 q 138 82 114 82 q 161 118 161 82 l 161 407 l 114 218 l 114 118 z "},"À":{"ha":279,"x_min":0,"x_max":281,"o":"m 281 0 l 171 0 l 160 247 l 110 247 l 99 0 l 0 0 l 67 972 l 207 972 l 281 0 m 156 340 l 142 622 l 136 838 l 133 838 l 128 622 l 114 340 l 156 340 m 60 1179 l 153 1179 l 171 1013 l 100 1013 l 60 1179 z "},"Á":{"ha":279,"x_min":0,"x_max":281,"o":"m 281 0 l 171 0 l 160 247 l 110 247 l 99 0 l 0 0 l 67 972 l 207 972 l 281 0 m 156 340 l 142 622 l 136 838 l 133 838 l 128 622 l 114 340 l 156 340 m 103 1013 l 121 1179 l 214 1179 l 174 1013 l 103 1013 z "},"Â":{"ha":279,"x_min":0,"x_max":281,"o":"m 281 0 l 171 0 l 160 247 l 110 247 l 99 0 l 0 0 l 67 972 l 207 972 l 281 0 m 156 340 l 142 622 l 136 838 l 133 838 l 128 622 l 114 340 l 156 340 m 53 1013 l 86 1179 l 186 1179 l 219 1013 l 153 1013 l 138 1106 l 135 1106 l 119 1013 l 53 1013 z "},"Ã":{"ha":279,"x_min":0,"x_max":281,"o":"m 281 0 l 171 0 l 160 247 l 110 247 l 99 0 l 0 0 l 67 972 l 207 972 l 281 0 m 156 340 l 142 622 l 136 838 l 133 838 l 128 622 l 114 340 l 156 340 m 235 1158 q 224 1058 235 1088 q 186 1028 213 1028 q 160 1033 172 1028 q 138 1046 149 1039 q 117 1058 126 1053 q 97 1064 107 1064 q 83 1056 86 1064 q 79 1029 79 1049 l 79 1028 l 42 1028 l 42 1031 q 52 1131 42 1101 q 89 1161 63 1161 q 114 1156 101 1161 q 138 1143 126 1150 q 159 1131 149 1136 q 179 1125 169 1125 q 199 1156 199 1125 l 199 1161 l 235 1161 l 235 1158 z "},"Ä":{"ha":279,"x_min":0,"x_max":281,"o":"m 281 0 l 171 0 l 160 247 l 110 247 l 99 0 l 0 0 l 67 972 l 207 972 l 281 0 m 156 340 l 142 622 l 136 838 l 133 838 l 128 622 l 114 340 l 156 340 m 57 1147 l 126 1147 l 126 1026 l 57 1026 l 57 1147 m 149 1147 l 218 1147 l 218 1026 l 149 1026 l 149 1147 z "},"Å":{"ha":279,"x_min":0,"x_max":281,"o":"m 281 0 l 171 0 l 160 247 l 110 247 l 99 0 l 0 0 l 67 972 l 207 972 l 281 0 m 156 340 l 142 622 l 136 838 l 133 838 l 128 622 l 114 340 l 156 340 m 49 1096 q 138 1182 49 1182 q 226 1094 226 1182 q 138 1008 226 1008 q 49 1096 49 1008 m 108 1096 q 138 1067 108 1067 q 167 1094 167 1067 q 138 1124 167 1124 q 108 1096 108 1124 z "},"Ç":{"ha":288,"x_min":18,"x_max":268,"o":"m 167 850 q 143 888 167 888 q 119 850 119 888 l 119 122 q 143 85 119 85 q 167 122 167 85 l 167 411 l 268 411 l 268 117 q 234 25 268 58 q 143 -8 200 -8 q 52 25 86 -8 q 18 117 18 58 l 18 856 q 53 947 18 914 q 144 981 88 981 q 234 947 200 981 q 268 856 268 914 l 268 604 l 167 604 l 167 850 m 172 3 l 164 -29 q 229 -51 204 -29 q 254 -104 254 -72 q 219 -164 254 -140 q 131 -187 185 -187 q 78 -181 108 -187 l 78 -108 q 114 -112 94 -112 q 167 -90 167 -112 q 149 -71 167 -78 q 104 -64 132 -64 l 119 3 l 172 3 z "},"Ð":{"ha":288,"x_min":-4,"x_max":268,"o":"m 268 121 q 239 31 268 63 q 143 0 210 0 l 18 0 l 18 972 l 143 972 q 239 942 210 972 q 268 851 268 911 l 268 121 m 165 844 q 160 872 165 864 q 142 879 154 879 l 119 879 l 119 93 l 142 93 q 160 101 154 93 q 165 128 165 108 l 165 844 m 144 439 l -4 439 l -4 532 l 144 532 l 144 439 z "},"Đ":{"ha":288,"x_min":-4,"x_max":268,"o":"m 268 121 q 239 31 268 63 q 143 0 210 0 l 18 0 l 18 972 l 143 972 q 239 942 210 972 q 268 851 268 911 l 268 121 m 165 844 q 160 872 165 864 q 142 879 154 879 l 119 879 l 119 93 l 142 93 q 160 101 154 93 q 165 128 165 108 l 165 844 m 144 439 l -4 439 l -4 532 l 144 532 l 144 439 z "},"È":{"ha":192,"x_min":17,"x_max":182,"o":"m 175 878 l 119 878 l 119 544 l 168 544 l 168 451 l 119 451 l 119 93 l 182 93 l 182 0 l 18 0 l 18 971 l 175 971 l 175 878 m 17 1179 l 110 1179 l 128 1013 l 57 1013 l 17 1179 z "},"É":{"ha":192,"x_min":18,"x_max":182,"o":"m 175 878 l 119 878 l 119 544 l 168 544 l 168 451 l 119 451 l 119 93 l 182 93 l 182 0 l 18 0 l 18 971 l 175 971 l 175 878 m 60 1013 l 78 1179 l 171 1179 l 131 1013 l 60 1013 z "},"Ê":{"ha":192,"x_min":10,"x_max":182,"o":"m 175 878 l 119 878 l 119 544 l 168 544 l 168 451 l 119 451 l 119 93 l 182 93 l 182 0 l 18 0 l 18 971 l 175 971 l 175 878 m 10 1013 l 43 1179 l 143 1179 l 176 1013 l 110 1013 l 94 1106 l 92 1106 l 76 1013 l 10 1013 z "},"Ë":{"ha":192,"x_min":14,"x_max":182,"o":"m 175 878 l 119 878 l 119 544 l 168 544 l 168 451 l 119 451 l 119 93 l 182 93 l 182 0 l 18 0 l 18 971 l 175 971 l 175 878 m 14 1147 l 83 1147 l 83 1026 l 14 1026 l 14 1147 m 106 1147 l 175 1147 l 175 1026 l 106 1026 l 106 1147 z "},"Ì":{"ha":139,"x_min":-8,"x_max":119,"o":"m 119 0 l 18 0 l 18 972 l 119 972 l 119 0 m -8 1179 l 85 1179 l 103 1013 l 32 1013 l -8 1179 z "},"Í":{"ha":139,"x_min":18,"x_max":147,"o":"m 119 0 l 18 0 l 18 972 l 119 972 l 119 0 m 36 1013 l 54 1179 l 147 1179 l 107 1013 l 36 1013 z "},"Î":{"ha":139,"x_min":-15,"x_max":151,"o":"m 119 0 l 18 0 l 18 972 l 119 972 l 119 0 m -15 1013 l 18 1179 l 118 1179 l 151 1013 l 85 1013 l 69 1106 l 67 1106 l 51 1013 l -15 1013 z "},"Ï":{"ha":139,"x_min":-11,"x_max":150,"o":"m 119 0 l 18 0 l 18 972 l 119 972 l 119 0 m -11 1147 l 58 1147 l 58 1026 l -11 1026 l -11 1147 m 81 1147 l 150 1147 l 150 1026 l 81 1026 l 81 1147 z "},"Ł":{"ha":190,"x_min":-42,"x_max":182,"o":"m 119 972 l 119 93 l 179 93 l 179 0 l 18 0 l 18 972 l 119 972 m 182 478 l -4 401 l -42 490 l 144 567 l 182 478 z "},"Ñ":{"ha":344,"x_min":18,"x_max":325,"o":"m 325 0 l 192 0 l 97 792 l 94 792 l 110 465 l 115 0 l 18 0 l 18 972 l 153 972 l 247 183 l 250 183 l 235 500 l 229 972 l 325 972 l 325 0 m 269 1158 q 258 1058 269 1088 q 221 1028 247 1028 q 195 1033 207 1028 q 172 1046 183 1039 q 151 1058 161 1053 q 132 1064 142 1064 q 117 1056 121 1064 q 114 1029 114 1049 l 114 1028 l 76 1028 l 76 1031 q 87 1131 76 1101 q 124 1161 97 1161 q 149 1156 136 1161 q 172 1143 161 1150 q 194 1131 183 1136 q 214 1125 204 1125 q 233 1156 233 1125 l 233 1161 l 269 1161 l 269 1158 z "},"Ò":{"ha":288,"x_min":17,"x_max":268,"o":"m 268 117 q 234 25 268 58 q 143 -8 200 -8 q 52 25 88 -8 q 17 117 17 58 l 17 856 q 52 947 17 914 q 144 981 88 981 q 234 947 200 981 q 268 856 268 914 l 268 117 m 165 850 q 143 888 165 888 q 119 850 119 888 l 119 122 q 143 85 119 85 q 165 122 165 85 l 165 850 m 68 1179 l 161 1179 l 179 1013 l 108 1013 l 68 1179 z "},"Ó":{"ha":288,"x_min":17,"x_max":268,"o":"m 268 117 q 234 25 268 58 q 143 -8 200 -8 q 52 25 88 -8 q 17 117 17 58 l 17 856 q 52 947 17 914 q 144 981 88 981 q 234 947 200 981 q 268 856 268 914 l 268 117 m 165 850 q 143 888 165 888 q 119 850 119 888 l 119 122 q 143 85 119 85 q 165 122 165 85 l 165 850 m 111 1013 l 129 1179 l 222 1179 l 182 1013 l 111 1013 z "},"Ô":{"ha":288,"x_min":17,"x_max":268,"o":"m 268 117 q 234 25 268 58 q 143 -8 200 -8 q 52 25 88 -8 q 17 117 17 58 l 17 856 q 52 947 17 914 q 144 981 88 981 q 234 947 200 981 q 268 856 268 914 l 268 117 m 165 850 q 143 888 165 888 q 119 850 119 888 l 119 122 q 143 85 119 85 q 165 122 165 85 l 165 850 m 61 1013 l 94 1179 l 194 1179 l 228 1013 l 161 1013 l 146 1106 l 143 1106 l 128 1013 l 61 1013 z "},"Õ":{"ha":288,"x_min":17,"x_max":268,"o":"m 268 117 q 234 25 268 58 q 143 -8 200 -8 q 52 25 88 -8 q 17 117 17 58 l 17 856 q 52 947 17 914 q 144 981 88 981 q 234 947 200 981 q 268 856 268 914 l 268 117 m 165 850 q 143 888 165 888 q 119 850 119 888 l 119 122 q 143 85 119 85 q 165 122 165 85 l 165 850 m 243 1158 q 232 1058 243 1088 q 194 1028 221 1028 q 169 1033 181 1028 q 146 1046 157 1039 q 125 1058 135 1053 q 106 1064 115 1064 q 91 1056 94 1064 q 88 1029 88 1049 l 88 1028 l 50 1028 l 50 1031 q 60 1131 50 1101 q 97 1161 71 1161 q 122 1156 110 1161 q 146 1143 135 1150 q 167 1131 157 1136 q 188 1125 178 1125 q 207 1156 207 1125 l 207 1161 l 243 1161 l 243 1158 z "},"Ö":{"ha":288,"x_min":17,"x_max":268,"o":"m 268 117 q 234 25 268 58 q 143 -8 200 -8 q 52 25 88 -8 q 17 117 17 58 l 17 856 q 52 947 17 914 q 144 981 88 981 q 234 947 200 981 q 268 856 268 914 l 268 117 m 165 850 q 143 888 165 888 q 119 850 119 888 l 119 122 q 143 85 119 85 q 165 122 165 85 l 165 850 m 65 1147 l 135 1147 l 135 1026 l 65 1026 l 65 1147 m 157 1147 l 226 1147 l 226 1026 l 157 1026 l 157 1147 z "},"Š":{"ha":281,"x_min":15,"x_max":265,"o":"m 265 117 q 231 25 265 58 q 139 -8 196 -8 q 49 25 82 -8 q 15 117 15 58 l 15 342 l 117 342 l 117 122 q 140 85 117 85 q 163 122 163 85 l 163 299 q 142 397 163 353 q 94 486 121 442 q 40 590 65 535 q 15 718 15 644 l 15 856 q 50 947 15 914 q 142 981 85 981 q 231 947 197 981 q 265 856 265 914 l 265 674 l 163 674 l 163 850 q 140 888 163 888 q 117 850 117 888 l 117 718 q 138 618 117 663 q 185 529 158 574 q 240 426 214 481 q 265 299 265 371 l 265 117 m 238 1178 l 204 1011 l 104 1011 l 71 1178 l 138 1178 l 153 1085 l 156 1085 l 171 1178 l 238 1178 z "},"Ù":{"ha":288,"x_min":18,"x_max":268,"o":"m 268 117 q 234 25 268 58 q 143 -8 200 -8 q 52 25 86 -8 q 18 117 18 58 l 18 972 l 119 972 l 119 122 q 143 85 119 85 q 167 122 167 85 l 167 972 l 268 972 l 268 117 m 67 1179 l 160 1179 l 178 1013 l 107 1013 l 67 1179 z "},"Ú":{"ha":288,"x_min":18,"x_max":268,"o":"m 268 117 q 234 25 268 58 q 143 -8 200 -8 q 52 25 86 -8 q 18 117 18 58 l 18 972 l 119 972 l 119 122 q 143 85 119 85 q 167 122 167 85 l 167 972 l 268 972 l 268 117 m 110 1013 l 128 1179 l 221 1179 l 181 1013 l 110 1013 z "},"Û":{"ha":288,"x_min":18,"x_max":268,"o":"m 268 117 q 234 25 268 58 q 143 -8 200 -8 q 52 25 86 -8 q 18 117 18 58 l 18 972 l 119 972 l 119 122 q 143 85 119 85 q 167 122 167 85 l 167 972 l 268 972 l 268 117 m 60 1013 l 93 1179 l 193 1179 l 226 1013 l 160 1013 l 144 1106 l 142 1106 l 126 1013 l 60 1013 z "},"Ü":{"ha":288,"x_min":18,"x_max":268,"o":"m 268 117 q 234 25 268 58 q 143 -8 200 -8 q 52 25 86 -8 q 18 117 18 58 l 18 972 l 119 972 l 119 122 q 143 85 119 85 q 167 122 167 85 l 167 972 l 268 972 l 268 117 m 64 1147 l 133 1147 l 133 1026 l 64 1026 l 64 1147 m 156 1147 l 225 1147 l 225 1026 l 156 1026 l 156 1147 z "},"Ÿ":{"ha":274,"x_min":0,"x_max":274,"o":"m 188 319 l 188 0 l 86 0 l 86 319 l 0 972 l 104 972 l 131 638 l 136 499 l 139 499 l 144 638 l 169 972 l 274 972 l 188 319 m 57 1147 l 126 1147 l 126 1026 l 57 1026 l 57 1147 m 149 1147 l 218 1147 l 218 1026 l 149 1026 l 149 1147 z "},"Ý":{"ha":274,"x_min":0,"x_max":274,"o":"m 188 319 l 188 0 l 86 0 l 86 319 l 0 972 l 104 972 l 131 638 l 136 499 l 139 499 l 144 638 l 169 972 l 274 972 l 188 319 m 103 1013 l 121 1179 l 214 1179 l 174 1013 l 103 1013 z "},"Ž":{"ha":236,"x_min":8,"x_max":228,"o":"m 228 879 l 113 93 l 226 93 l 226 0 l 8 0 l 8 93 l 124 879 l 15 879 l 15 972 l 228 972 l 228 879 m 218 1178 l 185 1011 l 85 1011 l 51 1178 l 118 1178 l 133 1085 l 136 1085 l 151 1178 l 218 1178 z "},"à":{"ha":276,"x_min":18,"x_max":257,"o":"m 114 508 l 18 508 l 18 675 q 51 767 18 733 q 136 800 83 800 q 224 767 190 800 q 257 675 257 733 l 257 0 l 161 0 l 161 63 l 158 63 q 133 10 151 29 q 89 -8 115 -8 q 36 22 54 -8 q 18 107 18 51 l 18 300 q 24 361 18 336 q 47 405 31 386 q 90 439 63 424 q 161 471 118 454 l 161 674 q 138 710 161 710 q 114 674 114 710 l 114 508 m 161 386 q 120 348 126 368 q 114 289 114 328 l 114 118 q 138 82 114 82 q 161 118 161 82 l 161 386 m 60 999 l 153 999 l 171 832 l 100 832 l 60 999 z "},"á":{"ha":276,"x_min":18,"x_max":257,"o":"m 114 508 l 18 508 l 18 675 q 51 767 18 733 q 136 800 83 800 q 224 767 190 800 q 257 675 257 733 l 257 0 l 161 0 l 161 63 l 158 63 q 133 10 151 29 q 89 -8 115 -8 q 36 22 54 -8 q 18 107 18 51 l 18 300 q 24 361 18 336 q 47 405 31 386 q 90 439 63 424 q 161 471 118 454 l 161 674 q 138 710 161 710 q 114 674 114 710 l 114 508 m 161 386 q 120 348 126 368 q 114 289 114 328 l 114 118 q 138 82 114 82 q 161 118 161 82 l 161 386 m 103 832 l 121 999 l 214 999 l 174 832 l 103 832 z "},"â":{"ha":276,"x_min":18,"x_max":257,"o":"m 114 508 l 18 508 l 18 675 q 51 767 18 733 q 136 800 83 800 q 224 767 190 800 q 257 675 257 733 l 257 0 l 161 0 l 161 63 l 158 63 q 133 10 151 29 q 89 -8 115 -8 q 36 22 54 -8 q 18 107 18 51 l 18 300 q 24 361 18 336 q 47 405 31 386 q 90 439 63 424 q 161 471 118 454 l 161 674 q 138 710 161 710 q 114 674 114 710 l 114 508 m 161 386 q 120 348 126 368 q 114 289 114 328 l 114 118 q 138 82 114 82 q 161 118 161 82 l 161 386 m 53 832 l 86 999 l 186 999 l 219 832 l 153 832 l 138 925 l 135 925 l 119 832 l 53 832 z "},"ã":{"ha":276,"x_min":18,"x_max":257,"o":"m 114 508 l 18 508 l 18 675 q 51 767 18 733 q 136 800 83 800 q 224 767 190 800 q 257 675 257 733 l 257 0 l 161 0 l 161 63 l 158 63 q 133 10 151 29 q 89 -8 115 -8 q 36 22 54 -8 q 18 107 18 51 l 18 300 q 24 361 18 336 q 47 405 31 386 q 90 439 63 424 q 161 471 118 454 l 161 674 q 138 710 161 710 q 114 674 114 710 l 114 508 m 161 386 q 120 348 126 368 q 114 289 114 328 l 114 118 q 138 82 114 82 q 161 118 161 82 l 161 386 m 235 978 q 224 877 235 907 q 186 847 213 847 q 160 853 172 847 q 138 865 149 858 q 117 878 126 872 q 97 883 107 883 q 83 876 86 883 q 79 849 79 868 l 79 847 l 42 847 l 42 850 q 52 951 42 921 q 89 981 63 981 q 114 975 101 981 q 138 963 126 969 q 159 950 149 956 q 179 944 169 944 q 199 975 199 944 l 199 981 l 235 981 l 235 978 z "},"ä":{"ha":276,"x_min":18,"x_max":257,"o":"m 114 508 l 18 508 l 18 675 q 51 767 18 733 q 136 800 83 800 q 224 767 190 800 q 257 675 257 733 l 257 0 l 161 0 l 161 63 l 158 63 q 133 10 151 29 q 89 -8 115 -8 q 36 22 54 -8 q 18 107 18 51 l 18 300 q 24 361 18 336 q 47 405 31 386 q 90 439 63 424 q 161 471 118 454 l 161 674 q 138 710 161 710 q 114 674 114 710 l 114 508 m 161 386 q 120 348 126 368 q 114 289 114 328 l 114 118 q 138 82 114 82 q 161 118 161 82 l 161 386 m 57 967 l 126 967 l 126 846 l 57 846 l 57 967 m 149 967 l 218 967 l 218 846 l 149 846 l 149 967 z "},"å":{"ha":276,"x_min":18,"x_max":257,"o":"m 114 508 l 18 508 l 18 675 q 51 767 18 733 q 136 800 83 800 q 224 767 190 800 q 257 675 257 733 l 257 0 l 161 0 l 161 63 l 158 63 q 133 10 151 29 q 89 -8 115 -8 q 36 22 54 -8 q 18 107 18 51 l 18 300 q 24 361 18 336 q 47 405 31 386 q 90 439 63 424 q 161 471 118 454 l 161 674 q 138 710 161 710 q 114 674 114 710 l 114 508 m 161 386 q 120 348 126 368 q 114 289 114 328 l 114 118 q 138 82 114 82 q 161 118 161 82 l 161 386 m 49 915 q 138 1001 49 1001 q 226 914 226 1001 q 138 828 226 828 q 49 915 49 828 m 108 915 q 138 886 108 886 q 167 914 167 886 q 138 943 167 943 q 108 915 108 943 z "},"ç":{"ha":276,"x_min":18,"x_max":257,"o":"m 160 674 q 136 710 160 710 q 114 674 114 710 l 114 118 q 136 82 114 82 q 160 118 160 82 l 160 338 l 257 338 l 257 117 q 224 25 257 58 q 138 -8 192 -8 q 51 25 85 -8 q 18 117 18 58 l 18 675 q 51 767 18 733 q 138 800 85 800 q 224 767 192 800 q 257 675 257 733 l 257 490 l 160 490 l 160 674 m 174 3 l 165 -29 q 231 -51 206 -29 q 256 -104 256 -72 q 221 -164 256 -140 q 132 -187 186 -187 q 79 -181 110 -187 l 79 -108 q 115 -112 96 -112 q 168 -90 168 -112 q 151 -71 168 -78 q 106 -64 133 -64 l 121 3 l 174 3 z "},"đ":{"ha":276,"x_min":18,"x_max":296,"o":"m 161 0 l 161 49 l 158 49 q 92 -8 140 -8 q 38 24 57 -8 q 18 117 18 56 l 18 675 q 38 768 18 736 q 92 800 57 800 q 158 742 142 800 l 161 743 l 161 1014 l 257 1014 l 257 0 l 161 0 m 114 118 q 138 82 114 82 q 161 118 161 82 l 161 674 q 138 710 161 710 q 114 674 114 710 l 114 118 m 296 832 l 119 832 l 119 928 l 296 928 l 296 832 z "},"è":{"ha":276,"x_min":18,"x_max":257,"o":"m 257 310 l 257 117 q 224 25 257 58 q 138 -8 192 -8 q 51 25 83 -8 q 18 117 18 58 l 18 675 q 51 767 18 733 q 139 800 85 800 q 224 767 192 800 q 257 675 257 733 l 257 376 l 114 376 l 114 118 q 138 82 114 82 q 161 118 161 82 l 161 310 l 257 310 m 161 674 q 138 710 161 710 q 114 674 114 710 l 114 465 l 161 465 l 161 674 m 63 999 l 156 999 l 174 832 l 103 832 l 63 999 z "},"é":{"ha":276,"x_min":18,"x_max":257,"o":"m 257 310 l 257 117 q 224 25 257 58 q 138 -8 192 -8 q 51 25 83 -8 q 18 117 18 58 l 18 675 q 51 767 18 733 q 139 800 85 800 q 224 767 192 800 q 257 675 257 733 l 257 376 l 114 376 l 114 118 q 138 82 114 82 q 161 118 161 82 l 161 310 l 257 310 m 161 674 q 138 710 161 710 q 114 674 114 710 l 114 465 l 161 465 l 161 674 m 106 832 l 124 999 l 217 999 l 176 832 l 106 832 z "},"ê":{"ha":276,"x_min":18,"x_max":257,"o":"m 257 310 l 257 117 q 224 25 257 58 q 138 -8 192 -8 q 51 25 83 -8 q 18 117 18 58 l 18 675 q 51 767 18 733 q 139 800 85 800 q 224 767 192 800 q 257 675 257 733 l 257 376 l 114 376 l 114 118 q 138 82 114 82 q 161 118 161 82 l 161 310 l 257 310 m 161 674 q 138 710 161 710 q 114 674 114 710 l 114 465 l 161 465 l 161 674 m 56 832 l 89 999 l 189 999 l 222 832 l 156 832 l 140 925 l 138 925 l 122 832 l 56 832 z "},"ë":{"ha":276,"x_min":18,"x_max":257,"o":"m 257 310 l 257 117 q 224 25 257 58 q 138 -8 192 -8 q 51 25 83 -8 q 18 117 18 58 l 18 675 q 51 767 18 733 q 139 800 85 800 q 224 767 192 800 q 257 675 257 733 l 257 376 l 114 376 l 114 118 q 138 82 114 82 q 161 118 161 82 l 161 310 l 257 310 m 161 674 q 138 710 161 710 q 114 674 114 710 l 114 465 l 161 465 l 161 674 m 60 967 l 129 967 l 129 846 l 60 846 l 60 967 m 151 967 l 221 967 l 221 846 l 151 846 l 151 967 z "},"ì":{"ha":133,"x_min":-11,"x_max":114,"o":"m 18 792 l 114 792 l 114 0 l 18 0 l 18 792 m -11 999 l 82 999 l 100 832 l 29 832 l -11 999 z "},"í":{"ha":133,"x_min":18,"x_max":144,"o":"m 18 792 l 114 792 l 114 0 l 18 0 l 18 792 m 33 832 l 51 999 l 144 999 l 104 832 l 33 832 z "},"î":{"ha":133,"x_min":-18,"x_max":149,"o":"m 18 792 l 114 792 l 114 0 l 18 0 l 18 792 m -18 832 l 15 999 l 115 999 l 149 832 l 82 832 l 67 925 l 64 925 l 49 832 l -18 832 z "},"ï":{"ha":133,"x_min":-14,"x_max":147,"o":"m 18 792 l 114 792 l 114 0 l 18 0 l 18 792 m -14 967 l 56 967 l 56 846 l -14 846 l -14 967 m 78 967 l 147 967 l 147 846 l 78 846 l 78 967 z "},"ł":{"ha":133,"x_min":-44,"x_max":178,"o":"m 18 1014 l 114 1014 l 114 0 l 18 0 l 18 1014 m 178 497 l -7 419 l -44 508 l 140 586 l 178 497 z "},"ñ":{"ha":276,"x_min":18,"x_max":257,"o":"m 161 674 q 138 710 161 710 q 114 674 114 710 l 114 0 l 18 0 l 18 792 l 114 792 l 114 743 l 117 743 q 183 800 135 800 q 238 768 218 800 q 257 675 257 736 l 257 0 l 161 0 l 161 674 m 233 978 q 222 877 233 907 q 185 847 211 847 q 159 853 171 847 q 136 865 147 858 q 115 878 125 872 q 96 883 106 883 q 81 876 85 883 q 78 849 78 868 l 78 847 l 40 847 l 40 850 q 51 951 40 921 q 88 981 61 981 q 113 975 100 981 q 136 963 125 969 q 158 950 147 956 q 178 944 168 944 q 197 975 197 944 l 197 981 l 233 981 l 233 978 z "},"ò":{"ha":276,"x_min":18,"x_max":257,"o":"m 257 117 q 224 25 257 58 q 139 -8 192 -8 q 51 25 85 -8 q 18 117 18 58 l 18 675 q 51 767 18 733 q 139 800 85 800 q 224 767 192 800 q 257 675 257 733 l 257 117 m 161 674 q 138 710 161 710 q 114 674 114 710 l 114 118 q 138 82 114 82 q 161 118 161 82 l 161 674 m 63 999 l 156 999 l 174 832 l 103 832 l 63 999 z "},"ó":{"ha":276,"x_min":18,"x_max":257,"o":"m 257 117 q 224 25 257 58 q 139 -8 192 -8 q 51 25 85 -8 q 18 117 18 58 l 18 675 q 51 767 18 733 q 139 800 85 800 q 224 767 192 800 q 257 675 257 733 l 257 117 m 161 674 q 138 710 161 710 q 114 674 114 710 l 114 118 q 138 82 114 82 q 161 118 161 82 l 161 674 m 106 832 l 124 999 l 217 999 l 176 832 l 106 832 z "},"ô":{"ha":276,"x_min":18,"x_max":257,"o":"m 257 117 q 224 25 257 58 q 139 -8 192 -8 q 51 25 85 -8 q 18 117 18 58 l 18 675 q 51 767 18 733 q 139 800 85 800 q 224 767 192 800 q 257 675 257 733 l 257 117 m 161 674 q 138 710 161 710 q 114 674 114 710 l 114 118 q 138 82 114 82 q 161 118 161 82 l 161 674 m 56 832 l 89 999 l 189 999 l 222 832 l 156 832 l 140 925 l 138 925 l 122 832 l 56 832 z "},"õ":{"ha":276,"x_min":18,"x_max":257,"o":"m 257 117 q 224 25 257 58 q 139 -8 192 -8 q 51 25 85 -8 q 18 117 18 58 l 18 675 q 51 767 18 733 q 139 800 85 800 q 224 767 192 800 q 257 675 257 733 l 257 117 m 161 674 q 138 710 161 710 q 114 674 114 710 l 114 118 q 138 82 114 82 q 161 118 161 82 l 161 674 m 238 978 q 226 877 238 907 q 189 847 215 847 q 163 853 175 847 q 140 865 151 858 q 119 878 129 872 q 100 883 110 883 q 85 876 89 883 q 82 849 82 868 l 82 847 l 44 847 l 44 850 q 55 951 44 921 q 92 981 65 981 q 117 975 104 981 q 140 963 129 969 q 162 950 151 956 q 182 944 172 944 q 201 975 201 944 l 201 981 l 238 981 l 238 978 z "},"ö":{"ha":276,"x_min":18,"x_max":257,"o":"m 257 117 q 224 25 257 58 q 139 -8 192 -8 q 51 25 85 -8 q 18 117 18 58 l 18 675 q 51 767 18 733 q 139 800 85 800 q 224 767 192 800 q 257 675 257 733 l 257 117 m 161 674 q 138 710 161 710 q 114 674 114 710 l 114 118 q 138 82 114 82 q 161 118 161 82 l 161 674 m 60 967 l 129 967 l 129 846 l 60 846 l 60 967 m 151 967 l 221 967 l 221 846 l 151 846 l 151 967 z "},"š":{"ha":268,"x_min":15,"x_max":253,"o":"m 253 117 q 219 25 253 58 q 133 -8 186 -8 q 48 25 81 -8 q 15 117 15 58 l 15 279 l 111 279 l 111 118 q 133 82 111 82 q 157 118 157 82 l 157 261 q 138 328 157 297 q 94 392 118 360 q 40 470 65 428 q 15 569 15 513 l 15 675 q 49 767 15 733 q 135 800 82 800 q 220 767 188 800 q 253 675 253 733 l 253 550 l 157 550 l 157 674 q 133 710 157 710 q 111 674 111 710 l 111 569 q 130 501 111 533 q 174 438 149 469 q 227 358 201 401 q 253 261 253 315 l 253 117 m 231 997 l 197 831 l 97 831 l 64 997 l 131 997 l 146 904 l 149 904 l 164 997 l 231 997 z "},"ù":{"ha":276,"x_min":18,"x_max":257,"o":"m 114 118 q 138 82 114 82 q 161 118 161 82 l 161 792 l 257 792 l 257 0 l 161 0 l 161 49 l 158 49 q 90 -8 139 -8 q 37 24 56 -8 q 18 117 18 56 l 18 792 l 114 792 l 114 118 m 61 999 l 154 999 l 172 832 l 101 832 l 61 999 z "},"ú":{"ha":276,"x_min":18,"x_max":257,"o":"m 114 118 q 138 82 114 82 q 161 118 161 82 l 161 792 l 257 792 l 257 0 l 161 0 l 161 49 l 158 49 q 90 -8 139 -8 q 37 24 56 -8 q 18 117 18 56 l 18 792 l 114 792 l 114 118 m 104 832 l 122 999 l 215 999 l 175 832 l 104 832 z "},"û":{"ha":276,"x_min":18,"x_max":257,"o":"m 114 118 q 138 82 114 82 q 161 118 161 82 l 161 792 l 257 792 l 257 0 l 161 0 l 161 49 l 158 49 q 90 -8 139 -8 q 37 24 56 -8 q 18 117 18 56 l 18 792 l 114 792 l 114 118 m 54 832 l 88 999 l 188 999 l 221 832 l 154 832 l 139 925 l 136 925 l 121 832 l 54 832 z "},"ü":{"ha":276,"x_min":18,"x_max":257,"o":"m 114 118 q 138 82 114 82 q 161 118 161 82 l 161 792 l 257 792 l 257 0 l 161 0 l 161 49 l 158 49 q 90 -8 139 -8 q 37 24 56 -8 q 18 117 18 56 l 18 792 l 114 792 l 114 118 m 58 967 l 128 967 l 128 846 l 58 846 l 58 967 m 150 967 l 219 967 l 219 846 l 150 846 l 150 967 z "},"ý":{"ha":272,"x_min":1,"x_max":269,"o":"m 135 364 l 140 189 l 143 189 l 149 364 l 178 790 l 269 790 l 161 -222 l 68 -222 l 93 0 l 1 790 l 106 790 l 135 364 m 103 832 l 121 999 l 214 999 l 174 832 l 103 832 z "},"ÿ":{"ha":272,"x_min":1,"x_max":269,"o":"m 135 364 l 140 189 l 143 189 l 149 364 l 178 790 l 269 790 l 161 -222 l 68 -222 l 93 0 l 1 790 l 106 790 l 135 364 m 56 967 l 125 967 l 125 846 l 56 846 l 56 967 m 147 967 l 217 967 l 217 846 l 147 846 l 147 967 z "},"ž":{"ha":231,"x_min":8,"x_max":222,"o":"m 222 704 l 107 88 l 221 88 l 221 0 l 8 0 l 8 81 l 124 704 l 15 704 l 15 792 l 222 792 l 222 704 m 211 997 l 178 831 l 78 831 l 44 997 l 111 997 l 126 904 l 129 904 l 144 997 l 211 997 z "},"Ā":{"ha":279,"x_min":0,"x_max":281,"o":"m 281 0 l 171 0 l 160 247 l 110 247 l 99 0 l 0 0 l 67 972 l 207 972 l 281 0 m 156 340 l 142 622 l 136 838 l 133 838 l 128 622 l 114 340 l 156 340 m 219 1032 l 53 1032 l 53 1129 l 219 1129 l 219 1032 z "},"ā":{"ha":276,"x_min":18,"x_max":257,"o":"m 114 508 l 18 508 l 18 675 q 51 767 18 733 q 136 800 83 800 q 224 767 190 800 q 257 675 257 733 l 257 0 l 161 0 l 161 63 l 158 63 q 133 10 151 29 q 89 -8 115 -8 q 36 22 54 -8 q 18 107 18 51 l 18 300 q 24 361 18 336 q 47 405 31 386 q 90 439 63 424 q 161 471 118 454 l 161 674 q 138 710 161 710 q 114 674 114 710 l 114 508 m 161 386 q 120 348 126 368 q 114 289 114 328 l 114 118 q 138 82 114 82 q 161 118 161 82 l 161 386 m 219 851 l 53 851 l 53 949 l 219 949 l 219 851 z "},"Ă":{"ha":279,"x_min":0,"x_max":281,"o":"m 281 0 l 171 0 l 160 247 l 110 247 l 99 0 l 0 0 l 67 972 l 207 972 l 281 0 m 156 340 l 142 622 l 136 838 l 133 838 l 128 622 l 114 340 l 156 340 m 106 1165 q 138 1114 106 1114 q 168 1165 168 1114 l 246 1165 q 218 1058 246 1090 q 138 1025 190 1025 q 57 1058 85 1025 q 29 1165 29 1090 l 106 1165 z "},"ă":{"ha":276,"x_min":18,"x_max":257,"o":"m 114 508 l 18 508 l 18 675 q 51 767 18 733 q 136 800 83 800 q 224 767 190 800 q 257 675 257 733 l 257 0 l 161 0 l 161 63 l 158 63 q 133 10 151 29 q 89 -8 115 -8 q 36 22 54 -8 q 18 107 18 51 l 18 300 q 24 361 18 336 q 47 405 31 386 q 90 439 63 424 q 161 471 118 454 l 161 674 q 138 710 161 710 q 114 674 114 710 l 114 508 m 161 386 q 120 348 126 368 q 114 289 114 328 l 114 118 q 138 82 114 82 q 161 118 161 82 l 161 386 m 106 985 q 138 933 106 933 q 168 985 168 933 l 246 985 q 218 877 246 910 q 138 844 190 844 q 57 877 85 844 q 29 985 29 910 l 106 985 z "},"Ą":{"ha":279,"x_min":0,"x_max":281,"o":"m 281 0 l 171 0 l 160 247 l 110 247 l 99 0 l 0 0 l 67 972 l 207 972 l 281 0 m 156 340 l 142 622 l 136 838 l 133 838 l 128 622 l 114 340 l 156 340 m 278 0 q 242 -12 258 0 q 226 -40 226 -24 q 237 -60 226 -53 q 263 -67 247 -67 q 278 -65 274 -67 l 278 -157 q 262 -160 271 -160 q 244 -161 253 -161 q 180 -140 203 -161 q 157 -86 157 -118 q 190 -20 157 -49 q 278 8 222 8 l 278 0 z "},"ą":{"ha":276,"x_min":18,"x_max":257,"o":"m 114 508 l 18 508 l 18 675 q 51 767 18 733 q 136 800 83 800 q 224 767 190 800 q 257 675 257 733 l 257 0 l 161 0 l 161 63 l 158 63 q 133 10 151 29 q 89 -8 115 -8 q 36 22 54 -8 q 18 107 18 51 l 18 300 q 24 361 18 336 q 47 405 31 386 q 90 439 63 424 q 161 471 118 454 l 161 674 q 138 710 161 710 q 114 674 114 710 l 114 508 m 161 386 q 120 348 126 368 q 114 289 114 328 l 114 118 q 138 82 114 82 q 161 118 161 82 l 161 386 m 256 0 q 220 -12 236 0 q 204 -40 204 -24 q 215 -60 204 -53 q 240 -67 225 -67 q 256 -65 251 -67 l 256 -157 q 240 -160 249 -160 q 222 -161 231 -161 q 158 -140 181 -161 q 135 -86 135 -118 q 167 -20 135 -49 q 256 8 200 8 l 256 0 z "},"Ć":{"ha":288,"x_min":18,"x_max":268,"o":"m 167 850 q 143 888 167 888 q 119 850 119 888 l 119 122 q 143 85 119 85 q 167 122 167 85 l 167 411 l 268 411 l 268 117 q 234 25 268 58 q 143 -8 200 -8 q 52 25 86 -8 q 18 117 18 58 l 18 856 q 53 947 18 914 q 144 981 88 981 q 234 947 200 981 q 268 856 268 914 l 268 604 l 167 604 l 167 850 m 111 1013 l 129 1179 l 222 1179 l 182 1013 l 111 1013 z "},"ć":{"ha":276,"x_min":18,"x_max":257,"o":"m 160 674 q 136 710 160 710 q 114 674 114 710 l 114 118 q 136 82 114 82 q 160 118 160 82 l 160 338 l 257 338 l 257 117 q 224 25 257 58 q 138 -8 192 -8 q 51 25 85 -8 q 18 117 18 58 l 18 675 q 51 767 18 733 q 138 800 85 800 q 224 767 192 800 q 257 675 257 733 l 257 490 l 160 490 l 160 674 m 106 832 l 124 999 l 217 999 l 176 832 l 106 832 z "},"Ĉ":{"ha":288,"x_min":18,"x_max":268,"o":"m 167 850 q 143 888 167 888 q 119 850 119 888 l 119 122 q 143 85 119 85 q 167 122 167 85 l 167 411 l 268 411 l 268 117 q 234 25 268 58 q 143 -8 200 -8 q 52 25 86 -8 q 18 117 18 58 l 18 856 q 53 947 18 914 q 144 981 88 981 q 234 947 200 981 q 268 856 268 914 l 268 604 l 167 604 l 167 850 m 61 1013 l 94 1179 l 194 1179 l 228 1013 l 161 1013 l 146 1106 l 143 1106 l 128 1013 l 61 1013 z "},"ĉ":{"ha":276,"x_min":18,"x_max":257,"o":"m 160 674 q 136 710 160 710 q 114 674 114 710 l 114 118 q 136 82 114 82 q 160 118 160 82 l 160 338 l 257 338 l 257 117 q 224 25 257 58 q 138 -8 192 -8 q 51 25 85 -8 q 18 117 18 58 l 18 675 q 51 767 18 733 q 138 800 85 800 q 224 767 192 800 q 257 675 257 733 l 257 490 l 160 490 l 160 674 m 56 832 l 89 999 l 189 999 l 222 832 l 156 832 l 140 925 l 138 925 l 122 832 l 56 832 z "},"Ċ":{"ha":288,"x_min":18,"x_max":268,"o":"m 167 850 q 143 888 167 888 q 119 850 119 888 l 119 122 q 143 85 119 85 q 167 122 167 85 l 167 411 l 268 411 l 268 117 q 234 25 268 58 q 143 -8 200 -8 q 52 25 86 -8 q 18 117 18 58 l 18 856 q 53 947 18 914 q 144 981 88 981 q 234 947 200 981 q 268 856 268 914 l 268 604 l 167 604 l 167 850 m 99 1147 l 192 1147 l 192 1026 l 99 1026 l 99 1147 z "},"ċ":{"ha":276,"x_min":18,"x_max":257,"o":"m 160 674 q 136 710 160 710 q 114 674 114 710 l 114 118 q 136 82 114 82 q 160 118 160 82 l 160 338 l 257 338 l 257 117 q 224 25 257 58 q 138 -8 192 -8 q 51 25 85 -8 q 18 117 18 58 l 18 675 q 51 767 18 733 q 138 800 85 800 q 224 767 192 800 q 257 675 257 733 l 257 490 l 160 490 l 160 674 m 93 967 l 186 967 l 186 846 l 93 846 l 93 967 z "},"Č":{"ha":288,"x_min":18,"x_max":268,"o":"m 167 850 q 143 888 167 888 q 119 850 119 888 l 119 122 q 143 85 119 85 q 167 122 167 85 l 167 411 l 268 411 l 268 117 q 234 25 268 58 q 143 -8 200 -8 q 52 25 86 -8 q 18 117 18 58 l 18 856 q 53 947 18 914 q 144 981 88 981 q 234 947 200 981 q 268 856 268 914 l 268 604 l 167 604 l 167 850 m 240 1178 l 207 1011 l 107 1011 l 74 1178 l 140 1178 l 156 1085 l 158 1085 l 174 1178 l 240 1178 z "},"č":{"ha":276,"x_min":18,"x_max":257,"o":"m 160 674 q 136 710 160 710 q 114 674 114 710 l 114 118 q 136 82 114 82 q 160 118 160 82 l 160 338 l 257 338 l 257 117 q 224 25 257 58 q 138 -8 192 -8 q 51 25 85 -8 q 18 117 18 58 l 18 675 q 51 767 18 733 q 138 800 85 800 q 224 767 192 800 q 257 675 257 733 l 257 490 l 160 490 l 160 674 m 235 997 l 201 831 l 101 831 l 68 997 l 135 997 l 150 904 l 153 904 l 168 997 l 235 997 z "},"Ď":{"ha":288,"x_min":18,"x_max":268,"o":"m 268 121 q 239 31 268 63 q 143 0 210 0 l 18 0 l 18 972 l 143 972 q 239 942 210 972 q 268 851 268 911 l 268 121 m 165 844 q 160 872 165 864 q 142 879 154 879 l 119 879 l 119 93 l 142 93 q 160 101 154 93 q 165 128 165 108 l 165 844 m 222 1178 l 189 1011 l 89 1011 l 56 1178 l 122 1178 l 138 1085 l 140 1085 l 156 1178 l 222 1178 z "},"ď":{"ha":363,"x_min":18,"x_max":372,"o":"m 161 0 l 161 49 l 158 49 q 92 -8 140 -8 q 38 24 57 -8 q 18 117 18 56 l 18 675 q 38 768 18 736 q 92 800 57 800 q 158 742 142 800 l 161 743 l 161 1014 l 257 1014 l 257 0 l 161 0 m 114 118 q 138 82 114 82 q 161 118 161 82 l 161 674 q 138 710 161 710 q 114 674 114 710 l 114 118 m 286 1014 l 372 1014 l 343 869 l 278 869 l 286 1014 z "},"Ē":{"ha":192,"x_min":10,"x_max":182,"o":"m 175 878 l 119 878 l 119 544 l 168 544 l 168 451 l 119 451 l 119 93 l 182 93 l 182 0 l 18 0 l 18 971 l 175 971 l 175 878 m 176 1032 l 10 1032 l 10 1129 l 176 1129 l 176 1032 z "},"ē":{"ha":276,"x_min":18,"x_max":257,"o":"m 257 310 l 257 117 q 224 25 257 58 q 138 -8 192 -8 q 51 25 83 -8 q 18 117 18 58 l 18 675 q 51 767 18 733 q 139 800 85 800 q 224 767 192 800 q 257 675 257 733 l 257 376 l 114 376 l 114 118 q 138 82 114 82 q 161 118 161 82 l 161 310 l 257 310 m 161 674 q 138 710 161 710 q 114 674 114 710 l 114 465 l 161 465 l 161 674 m 222 851 l 56 851 l 56 949 l 222 949 l 222 851 z "},"Ĕ":{"ha":192,"x_min":-14,"x_max":203,"o":"m 175 878 l 119 878 l 119 544 l 168 544 l 168 451 l 119 451 l 119 93 l 182 93 l 182 0 l 18 0 l 18 971 l 175 971 l 175 878 m 63 1165 q 94 1114 63 1114 q 125 1165 125 1114 l 203 1165 q 175 1058 203 1090 q 94 1025 147 1025 q 14 1058 42 1025 q -14 1165 -14 1090 l 63 1165 z "},"ĕ":{"ha":276,"x_min":18,"x_max":257,"o":"m 257 310 l 257 117 q 224 25 257 58 q 138 -8 192 -8 q 51 25 83 -8 q 18 117 18 58 l 18 675 q 51 767 18 733 q 139 800 85 800 q 224 767 192 800 q 257 675 257 733 l 257 376 l 114 376 l 114 118 q 138 82 114 82 q 161 118 161 82 l 161 310 l 257 310 m 161 674 q 138 710 161 710 q 114 674 114 710 l 114 465 l 161 465 l 161 674 m 108 985 q 140 933 108 933 q 171 985 171 933 l 249 985 q 221 877 249 910 q 140 844 193 844 q 60 877 88 844 q 32 985 32 910 l 108 985 z "},"Ė":{"ha":192,"x_min":18,"x_max":182,"o":"m 175 878 l 119 878 l 119 544 l 168 544 l 168 451 l 119 451 l 119 93 l 182 93 l 182 0 l 18 0 l 18 971 l 175 971 l 175 878 m 47 1147 l 140 1147 l 140 1026 l 47 1026 l 47 1147 z "},"ė":{"ha":276,"x_min":18,"x_max":257,"o":"m 257 310 l 257 117 q 224 25 257 58 q 138 -8 192 -8 q 51 25 83 -8 q 18 117 18 58 l 18 675 q 51 767 18 733 q 139 800 85 800 q 224 767 192 800 q 257 675 257 733 l 257 376 l 114 376 l 114 118 q 138 82 114 82 q 161 118 161 82 l 161 310 l 257 310 m 161 674 q 138 710 161 710 q 114 674 114 710 l 114 465 l 161 465 l 161 674 m 93 967 l 186 967 l 186 846 l 93 846 l 93 967 z "},"Ę":{"ha":192,"x_min":18,"x_max":182,"o":"m 175 878 l 119 878 l 119 544 l 168 544 l 168 451 l 119 451 l 119 93 l 182 93 l 182 0 l 18 0 l 18 971 l 175 971 l 175 878 m 182 0 q 147 -12 163 0 q 131 -40 131 -24 q 141 -60 131 -53 q 167 -67 151 -67 q 182 -65 178 -67 l 182 -157 q 166 -160 175 -160 q 149 -161 157 -161 q 84 -140 107 -161 q 61 -86 61 -118 q 94 -20 61 -49 q 182 8 126 8 l 182 0 z "},"ę":{"ha":276,"x_min":18,"x_max":257,"o":"m 257 310 l 257 117 q 224 25 257 58 q 138 -8 192 -8 q 51 25 83 -8 q 18 117 18 58 l 18 675 q 51 767 18 733 q 139 800 85 800 q 224 767 192 800 q 257 675 257 733 l 257 376 l 114 376 l 114 118 q 138 82 114 82 q 161 118 161 82 l 161 310 l 257 310 m 161 674 q 138 710 161 710 q 114 674 114 710 l 114 465 l 161 465 l 161 674 m 178 -1 q 153 -16 163 -6 q 144 -39 144 -26 q 155 -58 144 -51 q 181 -65 165 -65 q 196 -64 192 -65 l 196 -156 q 180 -159 189 -158 q 163 -160 171 -160 q 98 -137 122 -160 q 74 -82 74 -114 q 101 -22 74 -47 q 176 8 128 3 l 178 -1 z "},"Ě":{"ha":192,"x_min":18,"x_max":182,"o":"m 175 878 l 119 878 l 119 544 l 168 544 l 168 451 l 119 451 l 119 93 l 182 93 l 182 0 l 18 0 l 18 971 l 175 971 l 175 878 m 189 1178 l 156 1011 l 56 1011 l 22 1178 l 89 1178 l 104 1085 l 107 1085 l 122 1178 l 189 1178 z "},"ě":{"ha":276,"x_min":18,"x_max":257,"o":"m 257 310 l 257 117 q 224 25 257 58 q 138 -8 192 -8 q 51 25 83 -8 q 18 117 18 58 l 18 675 q 51 767 18 733 q 139 800 85 800 q 224 767 192 800 q 257 675 257 733 l 257 376 l 114 376 l 114 118 q 138 82 114 82 q 161 118 161 82 l 161 310 l 257 310 m 161 674 q 138 710 161 710 q 114 674 114 710 l 114 465 l 161 465 l 161 674 m 235 997 l 201 831 l 101 831 l 68 997 l 135 997 l 150 904 l 153 904 l 168 997 l 235 997 z "},"Ĝ":{"ha":288,"x_min":18,"x_max":268,"o":"m 268 513 l 268 0 l 167 0 l 167 56 l 164 56 q 97 -8 146 -8 q 40 25 61 -8 q 18 117 18 58 l 18 856 q 53 947 18 914 q 144 981 88 981 q 235 947 201 981 q 268 856 268 914 l 268 604 l 167 604 l 167 850 q 143 888 167 888 q 121 850 121 888 l 121 121 q 143 83 121 83 q 167 124 167 83 l 167 419 l 143 419 l 143 513 l 268 513 m 61 1013 l 94 1179 l 194 1179 l 228 1013 l 161 1013 l 146 1106 l 143 1106 l 128 1013 l 61 1013 z "},"ĝ":{"ha":276,"x_min":18,"x_max":257,"o":"m 257 -106 q 224 -197 257 -164 q 138 -231 190 -231 q 51 -198 83 -231 q 18 -108 18 -165 l 18 -37 l 114 -37 l 114 -104 q 138 -140 114 -140 q 161 -104 161 -140 l 161 50 l 158 50 q 133 7 150 22 q 90 -8 115 -8 q 37 24 56 -8 q 18 117 18 56 l 18 676 q 37 769 18 738 q 92 801 56 801 q 133 786 115 801 q 158 743 150 771 l 161 743 l 161 793 l 257 793 l 257 -106 m 114 118 q 138 82 114 82 q 161 118 161 82 l 161 675 q 138 711 161 711 q 114 675 114 711 l 114 118 m 64 832 l 97 999 l 197 999 l 231 832 l 164 832 l 149 925 l 146 925 l 131 832 l 64 832 z "},"Ğ":{"ha":288,"x_min":18,"x_max":268,"o":"m 268 513 l 268 0 l 167 0 l 167 56 l 164 56 q 97 -8 146 -8 q 40 25 61 -8 q 18 117 18 58 l 18 856 q 53 947 18 914 q 144 981 88 981 q 235 947 201 981 q 268 856 268 914 l 268 604 l 167 604 l 167 850 q 143 888 167 888 q 121 850 121 888 l 121 121 q 143 83 121 83 q 167 124 167 83 l 167 419 l 143 419 l 143 513 l 268 513 m 114 1165 q 146 1114 114 1114 q 176 1165 176 1114 l 254 1165 q 226 1058 254 1090 q 146 1025 199 1025 q 65 1058 93 1025 q 38 1165 38 1090 l 114 1165 z "},"ğ":{"ha":276,"x_min":18,"x_max":257,"o":"m 257 -106 q 224 -197 257 -164 q 138 -231 190 -231 q 51 -198 83 -231 q 18 -108 18 -165 l 18 -37 l 114 -37 l 114 -104 q 138 -140 114 -140 q 161 -104 161 -140 l 161 50 l 158 50 q 133 7 150 22 q 90 -8 115 -8 q 37 24 56 -8 q 18 117 18 56 l 18 676 q 37 769 18 738 q 92 801 56 801 q 133 786 115 801 q 158 743 150 771 l 161 743 l 161 793 l 257 793 l 257 -106 m 114 118 q 138 82 114 82 q 161 118 161 82 l 161 675 q 138 711 161 711 q 114 675 114 711 l 114 118 m 117 985 q 149 933 117 933 q 179 985 179 933 l 257 985 q 229 877 257 910 q 149 844 201 844 q 68 877 96 844 q 40 985 40 910 l 117 985 z "},"Ġ":{"ha":288,"x_min":18,"x_max":268,"o":"m 268 513 l 268 0 l 167 0 l 167 56 l 164 56 q 97 -8 146 -8 q 40 25 61 -8 q 18 117 18 58 l 18 856 q 53 947 18 914 q 144 981 88 981 q 235 947 201 981 q 268 856 268 914 l 268 604 l 167 604 l 167 850 q 143 888 167 888 q 121 850 121 888 l 121 121 q 143 83 121 83 q 167 124 167 83 l 167 419 l 143 419 l 143 513 l 268 513 m 100 1147 l 193 1147 l 193 1026 l 100 1026 l 100 1147 z "},"ġ":{"ha":276,"x_min":18,"x_max":257,"o":"m 257 -106 q 224 -197 257 -164 q 138 -231 190 -231 q 51 -198 83 -231 q 18 -108 18 -165 l 18 -37 l 114 -37 l 114 -104 q 138 -140 114 -140 q 161 -104 161 -140 l 161 50 l 158 50 q 133 7 150 22 q 90 -8 115 -8 q 37 24 56 -8 q 18 117 18 56 l 18 676 q 37 769 18 738 q 92 801 56 801 q 133 786 115 801 q 158 743 150 771 l 161 743 l 161 793 l 257 793 l 257 -106 m 114 118 q 138 82 114 82 q 161 118 161 82 l 161 675 q 138 711 161 711 q 114 675 114 711 l 114 118 m 101 967 l 194 967 l 194 846 l 101 846 l 101 967 z "},"Ģ":{"ha":288,"x_min":18,"x_max":268,"o":"m 268 513 l 268 0 l 167 0 l 167 56 l 164 56 q 97 -8 146 -8 q 40 25 61 -8 q 18 117 18 58 l 18 856 q 53 947 18 914 q 144 981 88 981 q 235 947 201 981 q 268 856 268 914 l 268 604 l 167 604 l 167 850 q 143 888 167 888 q 121 850 121 888 l 121 121 q 143 83 121 83 q 167 124 167 83 l 167 419 l 143 419 l 143 513 l 268 513 m 104 -26 l 190 -26 l 190 -144 l 174 -219 l 136 -219 l 151 -144 l 104 -144 l 104 -26 z "},"ģ":{"ha":276,"x_min":18,"x_max":257,"o":"m 257 -106 q 224 -197 257 -164 q 138 -231 190 -231 q 51 -198 83 -231 q 18 -108 18 -165 l 18 -37 l 114 -37 l 114 -104 q 138 -140 114 -140 q 161 -104 161 -140 l 161 50 l 158 50 q 133 7 150 22 q 90 -8 115 -8 q 37 24 56 -8 q 18 117 18 56 l 18 676 q 37 769 18 738 q 92 801 56 801 q 133 786 115 801 q 158 743 150 771 l 161 743 l 161 793 l 257 793 l 257 -106 m 114 118 q 138 82 114 82 q 161 118 161 82 l 161 675 q 138 711 161 711 q 114 675 114 711 l 114 118 z "},"Ĥ":{"ha":288,"x_min":18,"x_max":268,"o":"m 268 0 l 167 0 l 167 438 l 119 438 l 119 0 l 18 0 l 18 971 l 119 971 l 119 531 l 167 531 l 167 971 l 268 971 l 268 0 m 60 1013 l 93 1179 l 193 1179 l 226 1013 l 160 1013 l 144 1106 l 142 1106 l 126 1013 l 60 1013 z "},"ĥ":{"ha":276,"x_min":-18,"x_max":257,"o":"m 161 674 q 138 710 161 710 q 114 674 114 710 l 114 0 l 18 0 l 18 1014 l 114 1014 l 114 743 l 117 743 q 183 800 135 800 q 238 768 218 800 q 257 675 257 736 l 257 0 l 161 0 l 161 674 m -18 1054 l 15 1221 l 115 1221 l 149 1054 l 82 1054 l 67 1147 l 64 1147 l 49 1054 l -18 1054 z "},"Ħ":{"ha":288,"x_min":-6,"x_max":292,"o":"m 268 0 l 167 0 l 167 438 l 119 438 l 119 0 l 18 0 l 18 971 l 119 971 l 119 531 l 167 531 l 167 971 l 268 971 l 268 0 m 292 706 l -6 706 l -6 799 l 292 799 l 292 706 z "},"ħ":{"ha":276,"x_min":-21,"x_max":257,"o":"m 161 674 q 138 710 161 710 q 114 674 114 710 l 114 0 l 18 0 l 18 1014 l 114 1014 l 114 743 l 117 743 q 183 800 135 800 q 238 768 218 800 q 257 675 257 736 l 257 0 l 161 0 l 161 674 m 156 832 l -21 832 l -21 928 l 156 928 l 156 832 z "},"Ĩ":{"ha":139,"x_min":-26,"x_max":167,"o":"m 119 0 l 18 0 l 18 972 l 119 972 l 119 0 m 167 1158 q 156 1058 167 1088 q 118 1028 144 1028 q 92 1033 104 1028 q 69 1046 81 1039 q 49 1058 58 1053 q 29 1064 39 1064 q 15 1056 18 1064 q 11 1029 11 1049 l 11 1028 l -26 1028 l -26 1031 q -16 1131 -26 1101 q 21 1161 -6 1161 q 46 1156 33 1161 q 69 1143 58 1150 q 91 1131 81 1136 q 111 1125 101 1125 q 131 1156 131 1125 l 131 1161 l 167 1161 l 167 1158 z "},"ĩ":{"ha":133,"x_min":-29,"x_max":164,"o":"m 18 792 l 114 792 l 114 0 l 18 0 l 18 792 m 164 978 q 153 877 164 907 q 115 847 142 847 q 90 853 101 847 q 67 865 78 858 q 46 878 56 872 q 26 883 36 883 q 12 876 15 883 q 8 849 8 868 l 8 847 l -29 847 l -29 850 q -19 951 -29 921 q 18 981 -8 981 q 43 975 31 981 q 67 963 56 969 q 88 950 78 956 q 108 944 99 944 q 128 975 128 944 l 128 981 l 164 981 l 164 978 z "},"Ī":{"ha":139,"x_min":-14,"x_max":153,"o":"m 119 0 l 18 0 l 18 972 l 119 972 l 119 0 m 153 1032 l -14 1032 l -14 1129 l 153 1129 l 153 1032 z "},"ī":{"ha":133,"x_min":-17,"x_max":150,"o":"m 18 792 l 114 792 l 114 0 l 18 0 l 18 792 m 150 851 l -17 851 l -17 949 l 150 949 l 150 851 z "},"Ĭ":{"ha":139,"x_min":-39,"x_max":178,"o":"m 119 0 l 18 0 l 18 972 l 119 972 l 119 0 m 38 1165 q 69 1114 38 1114 q 100 1165 100 1114 l 178 1165 q 150 1058 178 1090 q 69 1025 122 1025 q -11 1058 17 1025 q -39 1165 -39 1090 l 38 1165 z "},"ĭ":{"ha":133,"x_min":-42,"x_max":175,"o":"m 18 792 l 114 792 l 114 0 l 18 0 l 18 792 m 35 985 q 67 933 35 933 q 97 985 97 933 l 175 985 q 147 877 175 910 q 67 844 119 844 q -14 877 14 844 q -42 985 -42 910 l 35 985 z "},"Į":{"ha":139,"x_min":-1,"x_max":119,"o":"m 119 0 l 18 0 l 18 972 l 119 972 l 119 0 m 119 0 q 84 -12 100 0 q 68 -40 68 -24 q 78 -60 68 -53 q 104 -67 89 -67 q 119 -65 115 -67 l 119 -157 q 103 -160 113 -160 q 86 -161 94 -161 q 22 -140 44 -161 q -1 -86 -1 -118 q 31 -20 -1 -49 q 119 8 64 8 l 119 0 z "},"į":{"ha":133,"x_min":-7,"x_max":114,"o":"m 18 954 l 114 954 l 114 819 l 18 819 l 18 954 m 18 792 l 114 792 l 114 0 l 18 0 l 18 792 m 114 0 q 78 -12 94 0 q 63 -40 63 -24 q 73 -60 63 -53 q 99 -67 83 -67 q 114 -65 110 -67 l 114 -157 q 98 -160 107 -160 q 81 -161 89 -161 q 16 -140 39 -161 q -7 -86 -7 -118 q 26 -20 -7 -49 q 114 8 58 8 l 114 0 z "},"İ":{"ha":139,"x_min":18,"x_max":119,"o":"m 119 0 l 18 0 l 18 972 l 119 972 l 119 0 m 24 1147 l 117 1147 l 117 1026 l 24 1026 l 24 1147 z "},"Ĳ":{"ha":426,"x_min":18,"x_max":407,"o":"m 119 0 l 18 0 l 18 972 l 119 972 l 119 0 m 407 117 q 373 25 407 58 q 282 -8 339 -8 q 191 25 225 -8 q 157 117 157 58 l 157 411 l 258 411 l 258 122 q 282 85 258 85 q 306 122 306 85 l 306 972 l 407 972 l 407 117 z "},"ĳ":{"ha":267,"x_min":18,"x_max":249,"o":"m 18 954 l 114 954 l 114 819 l 18 819 l 18 954 m 18 792 l 114 792 l 114 0 l 18 0 l 18 792 m 249 819 l 153 819 l 153 954 l 249 954 l 249 819 m 249 -106 q 244 -172 249 -147 q 228 -208 240 -196 q 197 -224 217 -221 q 149 -226 178 -226 l 119 -226 l 119 -140 q 149 -134 144 -140 q 153 -108 153 -128 l 153 792 l 249 792 l 249 -106 z "},"Ĵ":{"ha":288,"x_min":18,"x_max":300,"o":"m 268 117 q 234 25 268 58 q 143 -8 200 -8 q 52 25 86 -8 q 18 117 18 58 l 18 411 l 119 411 l 119 122 q 143 85 119 85 q 167 122 167 85 l 167 972 l 268 972 l 268 117 m 133 1013 l 167 1179 l 267 1179 l 300 1013 l 233 1013 l 218 1106 l 215 1106 l 200 1013 l 133 1013 z "},"ĵ":{"ha":133,"x_min":-17,"x_max":150,"o":"m 115 -106 q 110 -172 115 -147 q 94 -208 106 -196 q 63 -224 83 -221 q 14 -228 43 -228 l -14 -228 l -14 -142 q 14 -135 10 -142 q 18 -110 18 -129 l 18 792 l 115 792 l 115 -106 m -17 832 l 17 999 l 117 999 l 150 832 l 83 832 l 68 925 l 65 925 l 50 832 l -17 832 z "},"Ķ":{"ha":285,"x_min":18,"x_max":283,"o":"m 211 528 l 211 525 l 283 0 l 182 0 l 122 461 l 119 461 l 119 0 l 18 0 l 18 972 l 119 972 l 119 565 l 122 565 l 181 972 l 283 972 l 211 528 m 110 -26 l 196 -26 l 196 -144 l 179 -219 l 142 -219 l 157 -144 l 110 -144 l 110 -26 z "},"ķ":{"ha":279,"x_min":18,"x_max":275,"o":"m 200 431 l 200 428 l 275 0 l 178 0 l 117 379 l 114 379 l 114 0 l 18 0 l 18 1014 l 114 1014 l 114 457 l 117 457 l 175 792 l 274 792 l 200 431 m 104 -26 l 190 -26 l 190 -144 l 174 -219 l 136 -219 l 151 -144 l 104 -144 l 104 -26 z "},"ĸ":{"ha":279,"x_min":18,"x_max":275,"o":"m 200 431 l 200 428 l 275 0 l 178 0 l 117 379 l 114 379 l 114 0 l 18 0 l 18 792 l 114 792 l 114 457 l 117 457 l 175 792 l 274 792 l 200 431 z "},"Ĺ":{"ha":189,"x_min":18,"x_max":179,"o":"m 119 972 l 119 93 l 179 93 l 179 0 l 18 0 l 18 972 l 119 972 m 35 1013 l 53 1179 l 146 1179 l 106 1013 l 35 1013 z "},"ĺ":{"ha":133,"x_min":18,"x_max":143,"o":"m 18 1014 l 114 1014 l 114 0 l 18 0 l 18 1014 m 32 1054 l 50 1221 l 143 1221 l 103 1054 l 32 1054 z "},"Ļ":{"ha":189,"x_min":18,"x_max":179,"o":"m 119 972 l 119 93 l 179 93 l 179 0 l 18 0 l 18 972 l 119 972 m 57 -26 l 143 -26 l 143 -144 l 126 -219 l 89 -219 l 104 -144 l 57 -144 l 57 -26 z "},"ļ":{"ha":133,"x_min":18,"x_max":114,"o":"m 18 1014 l 114 1014 l 114 0 l 18 0 l 18 1014 m 25 -26 l 111 -26 l 111 -144 l 94 -219 l 57 -219 l 72 -144 l 25 -144 l 25 -26 z "},"Ľ":{"ha":189,"x_min":18,"x_max":235,"o":"m 119 972 l 119 93 l 179 93 l 179 0 l 18 0 l 18 972 l 119 972 m 149 972 l 235 972 l 206 828 l 140 828 l 149 972 z "},"ľ":{"ha":219,"x_min":18,"x_max":229,"o":"m 18 1014 l 114 1014 l 114 0 l 18 0 l 18 1014 m 143 1014 l 229 1014 l 200 869 l 135 869 l 143 1014 z "},"Ŀ":{"ha":242,"x_min":18,"x_max":233,"o":"m 119 972 l 119 93 l 179 93 l 179 0 l 18 0 l 18 972 l 119 972 z "},"ŀ":{"ha":254,"x_min":18,"x_max":238,"o":"m 18 1014 l 114 1014 l 114 0 l 18 0 l 18 1014 z "},"Ń":{"ha":344,"x_min":18,"x_max":325,"o":"m 325 0 l 192 0 l 97 792 l 94 792 l 110 465 l 115 0 l 18 0 l 18 972 l 153 972 l 247 183 l 250 183 l 235 500 l 229 972 l 325 972 l 325 0 m 138 1013 l 156 1179 l 249 1179 l 208 1013 l 138 1013 z "},"ń":{"ha":276,"x_min":18,"x_max":257,"o":"m 161 674 q 138 710 161 710 q 114 674 114 710 l 114 0 l 18 0 l 18 792 l 114 792 l 114 743 l 117 743 q 183 800 135 800 q 238 768 218 800 q 257 675 257 736 l 257 0 l 161 0 l 161 674 m 101 832 l 119 999 l 213 999 l 172 832 l 101 832 z "},"Ņ":{"ha":344,"x_min":18,"x_max":325,"o":"m 325 0 l 192 0 l 97 792 l 94 792 l 110 465 l 115 0 l 18 0 l 18 972 l 153 972 l 247 183 l 250 183 l 235 500 l 229 972 l 325 972 l 325 0 m 131 -26 l 217 -26 l 217 -144 l 200 -219 l 163 -219 l 178 -144 l 131 -144 l 131 -26 z "},"ņ":{"ha":276,"x_min":18,"x_max":257,"o":"m 161 674 q 138 710 161 710 q 114 674 114 710 l 114 0 l 18 0 l 18 792 l 114 792 l 114 743 l 117 743 q 183 800 135 800 q 238 768 218 800 q 257 675 257 736 l 257 0 l 161 0 l 161 674 m 96 -26 l 182 -26 l 182 -144 l 165 -219 l 128 -219 l 143 -144 l 96 -144 l 96 -26 z "},"Ň":{"ha":344,"x_min":18,"x_max":325,"o":"m 325 0 l 192 0 l 97 792 l 94 792 l 110 465 l 115 0 l 18 0 l 18 972 l 153 972 l 247 183 l 250 183 l 235 500 l 229 972 l 325 972 l 325 0 m 267 1178 l 233 1011 l 133 1011 l 100 1178 l 167 1178 l 182 1085 l 185 1085 l 200 1178 l 267 1178 z "},"ň":{"ha":276,"x_min":18,"x_max":257,"o":"m 161 674 q 138 710 161 710 q 114 674 114 710 l 114 0 l 18 0 l 18 792 l 114 792 l 114 743 l 117 743 q 183 800 135 800 q 238 768 218 800 q 257 675 257 736 l 257 0 l 161 0 l 161 674 m 231 997 l 197 831 l 97 831 l 64 997 l 131 997 l 146 904 l 149 904 l 164 997 l 231 997 z "},"ŉ":{"ha":436,"x_min":24,"x_max":413,"o":"m 24 972 l 413 972 l 413 0 l 24 0 l 24 972 m 218 601 l 307 899 l 126 899 l 218 601 m 339 208 l 339 774 l 253 488 l 339 208 m 97 199 l 183 488 l 97 768 l 97 199 m 128 74 l 311 74 l 218 374 l 128 74 z "},"Ŋ":{"ha":426,"x_min":19,"x_max":408,"o":"m 19 972 l 408 972 l 408 0 l 19 0 l 19 972 m 214 601 l 303 899 l 122 899 l 214 601 m 335 208 l 335 774 l 249 488 l 335 208 m 93 199 l 179 488 l 93 768 l 93 199 m 124 74 l 307 74 l 214 374 l 124 74 z "},"ŋ":{"ha":426,"x_min":19,"x_max":408,"o":"m 19 972 l 408 972 l 408 0 l 19 0 l 19 972 m 214 601 l 303 899 l 122 899 l 214 601 m 335 208 l 335 774 l 249 488 l 335 208 m 93 199 l 179 488 l 93 768 l 93 199 m 124 74 l 307 74 l 214 374 l 124 74 z "},"Ō":{"ha":288,"x_min":17,"x_max":268,"o":"m 268 117 q 234 25 268 58 q 143 -8 200 -8 q 52 25 88 -8 q 17 117 17 58 l 17 856 q 52 947 17 914 q 144 981 88 981 q 234 947 200 981 q 268 856 268 914 l 268 117 m 165 850 q 143 888 165 888 q 119 850 119 888 l 119 122 q 143 85 119 85 q 165 122 165 85 l 165 850 m 228 1032 l 61 1032 l 61 1129 l 228 1129 l 228 1032 z "},"ō":{"ha":276,"x_min":18,"x_max":257,"o":"m 257 117 q 224 25 257 58 q 139 -8 192 -8 q 51 25 85 -8 q 18 117 18 58 l 18 675 q 51 767 18 733 q 139 800 85 800 q 224 767 192 800 q 257 675 257 733 l 257 117 m 161 674 q 138 710 161 710 q 114 674 114 710 l 114 118 q 138 82 114 82 q 161 118 161 82 l 161 674 m 222 851 l 56 851 l 56 949 l 222 949 l 222 851 z "},"Ŏ":{"ha":288,"x_min":17,"x_max":268,"o":"m 268 117 q 234 25 268 58 q 143 -8 200 -8 q 52 25 88 -8 q 17 117 17 58 l 17 856 q 52 947 17 914 q 144 981 88 981 q 234 947 200 981 q 268 856 268 914 l 268 117 m 165 850 q 143 888 165 888 q 119 850 119 888 l 119 122 q 143 85 119 85 q 165 122 165 85 l 165 850 m 114 1165 q 146 1114 114 1114 q 176 1165 176 1114 l 254 1165 q 226 1058 254 1090 q 146 1025 199 1025 q 65 1058 93 1025 q 38 1165 38 1090 l 114 1165 z "},"ŏ":{"ha":276,"x_min":18,"x_max":257,"o":"m 257 117 q 224 25 257 58 q 139 -8 192 -8 q 51 25 85 -8 q 18 117 18 58 l 18 675 q 51 767 18 733 q 139 800 85 800 q 224 767 192 800 q 257 675 257 733 l 257 117 m 161 674 q 138 710 161 710 q 114 674 114 710 l 114 118 q 138 82 114 82 q 161 118 161 82 l 161 674 m 108 985 q 140 933 108 933 q 171 985 171 933 l 249 985 q 221 877 249 910 q 140 844 193 844 q 60 877 88 844 q 32 985 32 910 l 108 985 z "},"Ő":{"ha":288,"x_min":17,"x_max":282,"o":"m 268 117 q 234 25 268 58 q 143 -8 200 -8 q 52 25 88 -8 q 17 117 17 58 l 17 856 q 52 947 17 914 q 144 981 88 981 q 234 947 200 981 q 268 856 268 914 l 268 117 m 165 850 q 143 888 165 888 q 119 850 119 888 l 119 122 q 143 85 119 85 q 165 122 165 85 l 165 850 z "},"ő":{"ha":276,"x_min":18,"x_max":276,"o":"m 257 117 q 224 25 257 58 q 139 -8 192 -8 q 51 25 85 -8 q 18 117 18 58 l 18 675 q 51 767 18 733 q 139 800 85 800 q 224 767 192 800 q 257 675 257 733 l 257 117 m 161 674 q 138 710 161 710 q 114 674 114 710 l 114 118 q 138 82 114 82 q 161 118 161 82 l 161 674 z "},"Ŕ":{"ha":288,"x_min":18,"x_max":282,"o":"m 167 413 q 161 439 167 432 q 143 446 156 446 l 119 446 l 119 0 l 18 0 l 18 972 l 144 972 q 238 943 207 972 q 268 851 268 914 l 268 599 q 259 528 268 551 q 218 494 250 506 l 218 492 q 259 458 250 481 q 268 388 268 435 l 268 125 q 269 62 268 89 q 282 3 271 35 l 282 0 l 179 0 q 169 60 172 32 q 167 126 167 88 l 167 413 m 167 844 q 143 879 167 879 l 119 879 l 119 540 l 143 540 q 161 547 156 540 q 167 574 167 554 l 167 844 m 93 1013 l 111 1179 l 204 1179 l 164 1013 l 93 1013 z "},"ŕ":{"ha":276,"x_min":18,"x_max":257,"o":"m 160 674 q 136 710 160 710 q 114 674 114 710 l 114 0 l 18 0 l 18 792 l 114 792 l 114 743 l 117 743 q 183 800 135 800 q 238 768 219 800 q 257 675 257 736 l 257 467 l 160 467 l 160 674 m 104 832 l 122 999 l 215 999 l 175 832 l 104 832 z "},"Ŗ":{"ha":288,"x_min":18,"x_max":282,"o":"m 167 413 q 161 439 167 432 q 143 446 156 446 l 119 446 l 119 0 l 18 0 l 18 972 l 144 972 q 238 943 207 972 q 268 851 268 914 l 268 599 q 259 528 268 551 q 218 494 250 506 l 218 492 q 259 458 250 481 q 268 388 268 435 l 268 125 q 269 62 268 89 q 282 3 271 35 l 282 0 l 179 0 q 169 60 172 32 q 167 126 167 88 l 167 413 m 167 844 q 143 879 167 879 l 119 879 l 119 540 l 143 540 q 161 547 156 540 q 167 574 167 554 l 167 844 m 110 -26 l 196 -26 l 196 -144 l 179 -219 l 142 -219 l 157 -144 l 110 -144 l 110 -26 z "},"ŗ":{"ha":276,"x_min":18,"x_max":257,"o":"m 160 674 q 136 710 160 710 q 114 674 114 710 l 114 0 l 18 0 l 18 792 l 114 792 l 114 743 l 117 743 q 183 800 135 800 q 238 768 219 800 q 257 675 257 736 l 257 467 l 160 467 l 160 674 m 25 -26 l 111 -26 l 111 -144 l 94 -219 l 57 -219 l 72 -144 l 25 -144 l 25 -26 z "},"Ř":{"ha":288,"x_min":18,"x_max":282,"o":"m 167 413 q 161 439 167 432 q 143 446 156 446 l 119 446 l 119 0 l 18 0 l 18 972 l 144 972 q 238 943 207 972 q 268 851 268 914 l 268 599 q 259 528 268 551 q 218 494 250 506 l 218 492 q 259 458 250 481 q 268 388 268 435 l 268 125 q 269 62 268 89 q 282 3 271 35 l 282 0 l 179 0 q 169 60 172 32 q 167 126 167 88 l 167 413 m 167 844 q 143 879 167 879 l 119 879 l 119 540 l 143 540 q 161 547 156 540 q 167 574 167 554 l 167 844 m 222 1178 l 189 1011 l 89 1011 l 56 1178 l 122 1178 l 138 1085 l 140 1085 l 156 1178 l 222 1178 z "},"ř":{"ha":276,"x_min":18,"x_max":257,"o":"m 160 674 q 136 710 160 710 q 114 674 114 710 l 114 0 l 18 0 l 18 792 l 114 792 l 114 743 l 117 743 q 183 800 135 800 q 238 768 219 800 q 257 675 257 736 l 257 467 l 160 467 l 160 674 m 233 997 l 200 831 l 100 831 l 67 997 l 133 997 l 149 904 l 151 904 l 167 997 l 233 997 z "},"Ś":{"ha":281,"x_min":15,"x_max":265,"o":"m 265 117 q 231 25 265 58 q 139 -8 196 -8 q 49 25 82 -8 q 15 117 15 58 l 15 342 l 117 342 l 117 122 q 140 85 117 85 q 163 122 163 85 l 163 299 q 142 397 163 353 q 94 486 121 442 q 40 590 65 535 q 15 718 15 644 l 15 856 q 50 947 15 914 q 142 981 85 981 q 231 947 197 981 q 265 856 265 914 l 265 674 l 163 674 l 163 850 q 140 888 163 888 q 117 850 117 888 l 117 718 q 138 618 117 663 q 185 529 158 574 q 240 426 214 481 q 265 299 265 371 l 265 117 m 108 1013 l 126 1179 l 219 1179 l 179 1013 l 108 1013 z "},"ś":{"ha":268,"x_min":15,"x_max":253,"o":"m 253 117 q 219 25 253 58 q 133 -8 186 -8 q 48 25 81 -8 q 15 117 15 58 l 15 279 l 111 279 l 111 118 q 133 82 111 82 q 157 118 157 82 l 157 261 q 138 328 157 297 q 94 392 118 360 q 40 470 65 428 q 15 569 15 513 l 15 675 q 49 767 15 733 q 135 800 82 800 q 220 767 188 800 q 253 675 253 733 l 253 550 l 157 550 l 157 674 q 133 710 157 710 q 111 674 111 710 l 111 569 q 130 501 111 533 q 174 438 149 469 q 227 358 201 401 q 253 261 253 315 l 253 117 m 101 832 l 119 999 l 213 999 l 172 832 l 101 832 z "},"Ŝ":{"ha":281,"x_min":15,"x_max":265,"o":"m 265 117 q 231 25 265 58 q 139 -8 196 -8 q 49 25 82 -8 q 15 117 15 58 l 15 342 l 117 342 l 117 122 q 140 85 117 85 q 163 122 163 85 l 163 299 q 142 397 163 353 q 94 486 121 442 q 40 590 65 535 q 15 718 15 644 l 15 856 q 50 947 15 914 q 142 981 85 981 q 231 947 197 981 q 265 856 265 914 l 265 674 l 163 674 l 163 850 q 140 888 163 888 q 117 850 117 888 l 117 718 q 138 618 117 663 q 185 529 158 574 q 240 426 214 481 q 265 299 265 371 l 265 117 m 57 1013 l 90 1179 l 190 1179 l 224 1013 l 157 1013 l 142 1106 l 139 1106 l 124 1013 l 57 1013 z "},"ŝ":{"ha":268,"x_min":15,"x_max":253,"o":"m 253 117 q 219 25 253 58 q 133 -8 186 -8 q 48 25 81 -8 q 15 117 15 58 l 15 279 l 111 279 l 111 118 q 133 82 111 82 q 157 118 157 82 l 157 261 q 138 328 157 297 q 94 392 118 360 q 40 470 65 428 q 15 569 15 513 l 15 675 q 49 767 15 733 q 135 800 82 800 q 220 767 188 800 q 253 675 253 733 l 253 550 l 157 550 l 157 674 q 133 710 157 710 q 111 674 111 710 l 111 569 q 130 501 111 533 q 174 438 149 469 q 227 358 201 401 q 253 261 253 315 l 253 117 m 51 832 l 85 999 l 185 999 l 218 832 l 151 832 l 136 925 l 133 925 l 118 832 l 51 832 z "},"Ş":{"ha":281,"x_min":15,"x_max":265,"o":"m 265 117 q 231 25 265 58 q 139 -8 196 -8 q 49 25 82 -8 q 15 117 15 58 l 15 342 l 117 342 l 117 122 q 140 85 117 85 q 163 122 163 85 l 163 299 q 142 397 163 353 q 94 486 121 442 q 40 590 65 535 q 15 718 15 644 l 15 856 q 50 947 15 914 q 142 981 85 981 q 231 947 197 981 q 265 856 265 914 l 265 674 l 163 674 l 163 850 q 140 888 163 888 q 117 850 117 888 l 117 718 q 138 618 117 663 q 185 529 158 574 q 240 426 214 481 q 265 299 265 371 l 265 117 m 167 3 l 158 -29 q 224 -51 199 -29 q 249 -104 249 -72 q 214 -164 249 -140 q 125 -187 179 -187 q 72 -181 103 -187 l 72 -108 q 108 -112 89 -112 q 161 -90 161 -112 q 144 -71 161 -78 q 99 -64 126 -64 l 114 3 l 167 3 z "},"ş":{"ha":268,"x_min":15,"x_max":253,"o":"m 253 117 q 219 25 253 58 q 133 -8 186 -8 q 48 25 81 -8 q 15 117 15 58 l 15 279 l 111 279 l 111 118 q 133 82 111 82 q 157 118 157 82 l 157 261 q 138 328 157 297 q 94 392 118 360 q 40 470 65 428 q 15 569 15 513 l 15 675 q 49 767 15 733 q 135 800 82 800 q 220 767 188 800 q 253 675 253 733 l 253 550 l 157 550 l 157 674 q 133 710 157 710 q 111 674 111 710 l 111 569 q 130 501 111 533 q 174 438 149 469 q 227 358 201 401 q 253 261 253 315 l 253 117 m 161 3 l 153 -29 q 218 -51 193 -29 q 243 -104 243 -72 q 208 -164 243 -140 q 119 -187 174 -187 q 67 -181 97 -187 l 67 -108 q 103 -112 83 -112 q 156 -90 156 -112 q 138 -71 156 -78 q 93 -64 121 -64 l 108 3 l 161 3 z "},"Ţ":{"ha":258,"x_min":8,"x_max":249,"o":"m 249 879 l 179 879 l 179 0 l 78 0 l 78 879 l 8 879 l 8 972 l 249 972 l 249 879 m 157 3 l 149 -29 q 214 -51 189 -29 q 239 -104 239 -72 q 204 -164 239 -140 q 115 -187 169 -187 q 63 -181 93 -187 l 63 -108 q 99 -112 79 -112 q 151 -90 151 -112 q 134 -71 151 -78 q 89 -64 117 -64 l 104 3 l 157 3 z "},"ţ":{"ha":172,"x_min":7,"x_max":219,"o":"m 126 944 l 126 792 l 165 792 l 165 704 l 126 704 l 126 119 q 131 93 126 100 q 165 86 136 86 l 165 0 l 131 0 q 81 3 100 0 q 49 16 61 6 q 33 47 38 26 q 29 104 29 68 l 29 704 l 7 704 l 7 792 l 29 792 l 29 944 l 126 944 m 138 3 l 129 -29 q 194 -51 169 -29 q 219 -104 219 -72 q 185 -164 219 -140 q 96 -187 150 -187 q 43 -181 74 -187 l 43 -108 q 79 -112 60 -112 q 132 -90 132 -112 q 115 -71 132 -78 q 69 -64 97 -64 l 85 3 l 138 3 z "},"Ť":{"ha":258,"x_min":8,"x_max":249,"o":"m 249 879 l 179 879 l 179 0 l 78 0 l 78 879 l 8 879 l 8 972 l 249 972 l 249 879 m 225 1178 l 192 1011 l 92 1011 l 58 1178 l 125 1178 l 140 1085 l 143 1085 l 158 1178 l 225 1178 z "},"ť":{"ha":222,"x_min":7,"x_max":232,"o":"m 126 944 l 126 792 l 165 792 l 165 704 l 126 704 l 126 119 q 131 93 126 100 q 165 86 136 86 l 165 0 l 131 0 q 81 3 100 0 q 49 16 61 6 q 33 47 38 26 q 29 104 29 68 l 29 704 l 7 704 l 7 792 l 29 792 l 29 944 l 126 944 m 146 1014 l 232 1014 l 203 869 l 138 869 l 146 1014 z "},"Ŧ":{"ha":258,"x_min":8,"x_max":249,"o":"m 249 879 l 179 879 l 179 0 l 78 0 l 78 879 l 8 879 l 8 972 l 249 972 l 249 879 m 218 392 l 42 392 l 42 488 l 218 488 l 218 392 z "},"ŧ":{"ha":172,"x_min":7,"x_max":165,"o":"m 126 944 l 126 792 l 165 792 l 165 704 l 126 704 l 126 119 q 131 93 126 100 q 165 86 136 86 l 165 0 l 131 0 q 81 3 100 0 q 49 16 61 6 q 33 47 38 26 q 29 104 29 68 l 29 704 l 7 704 l 7 792 l 29 792 l 29 944 l 126 944 m 165 576 l 7 576 l 7 672 l 165 672 l 165 576 z "},"Ũ":{"ha":288,"x_min":18,"x_max":268,"o":"m 268 117 q 234 25 268 58 q 143 -8 200 -8 q 52 25 86 -8 q 18 117 18 58 l 18 972 l 119 972 l 119 122 q 143 85 119 85 q 167 122 167 85 l 167 972 l 268 972 l 268 117 m 242 1158 q 231 1058 242 1088 q 193 1028 219 1028 q 167 1033 179 1028 q 144 1046 156 1039 q 124 1058 133 1053 q 104 1064 114 1064 q 90 1056 93 1064 q 86 1029 86 1049 l 86 1028 l 49 1028 l 49 1031 q 59 1131 49 1101 q 96 1161 69 1161 q 121 1156 108 1161 q 144 1143 133 1150 q 166 1131 156 1136 q 186 1125 176 1125 q 206 1156 206 1125 l 206 1161 l 242 1161 l 242 1158 z "},"ũ":{"ha":276,"x_min":18,"x_max":257,"o":"m 114 118 q 138 82 114 82 q 161 118 161 82 l 161 792 l 257 792 l 257 0 l 161 0 l 161 49 l 158 49 q 90 -8 139 -8 q 37 24 56 -8 q 18 117 18 56 l 18 792 l 114 792 l 114 118 m 236 978 q 225 877 236 907 q 188 847 214 847 q 162 853 174 847 q 139 865 150 858 q 118 878 128 872 q 99 883 108 883 q 84 876 88 883 q 81 849 81 868 l 81 847 l 43 847 l 43 850 q 53 951 43 921 q 90 981 64 981 q 115 975 103 981 q 139 963 128 969 q 160 950 150 956 q 181 944 171 944 q 200 975 200 944 l 200 981 l 236 981 l 236 978 z "},"Ū":{"ha":288,"x_min":18,"x_max":268,"o":"m 268 117 q 234 25 268 58 q 143 -8 200 -8 q 52 25 86 -8 q 18 117 18 58 l 18 972 l 119 972 l 119 122 q 143 85 119 85 q 167 122 167 85 l 167 972 l 268 972 l 268 117 m 226 1032 l 60 1032 l 60 1129 l 226 1129 l 226 1032 z "},"ū":{"ha":276,"x_min":18,"x_max":257,"o":"m 114 118 q 138 82 114 82 q 161 118 161 82 l 161 792 l 257 792 l 257 0 l 161 0 l 161 49 l 158 49 q 90 -8 139 -8 q 37 24 56 -8 q 18 117 18 56 l 18 792 l 114 792 l 114 118 m 221 851 l 54 851 l 54 949 l 221 949 l 221 851 z "},"Ŭ":{"ha":288,"x_min":18,"x_max":268,"o":"m 268 117 q 234 25 268 58 q 143 -8 200 -8 q 52 25 86 -8 q 18 117 18 58 l 18 972 l 119 972 l 119 122 q 143 85 119 85 q 167 122 167 85 l 167 972 l 268 972 l 268 117 m 113 1165 q 144 1114 113 1114 q 175 1165 175 1114 l 253 1165 q 225 1058 253 1090 q 144 1025 197 1025 q 64 1058 92 1025 q 36 1165 36 1090 l 113 1165 z "},"ŭ":{"ha":276,"x_min":18,"x_max":257,"o":"m 114 118 q 138 82 114 82 q 161 118 161 82 l 161 792 l 257 792 l 257 0 l 161 0 l 161 49 l 158 49 q 90 -8 139 -8 q 37 24 56 -8 q 18 117 18 56 l 18 792 l 114 792 l 114 118 m 107 985 q 139 933 107 933 q 169 985 169 933 l 247 985 q 219 877 247 910 q 139 844 192 844 q 58 877 86 844 q 31 985 31 910 l 107 985 z "},"Ů":{"ha":288,"x_min":18,"x_max":268,"o":"m 268 117 q 234 25 268 58 q 143 -8 200 -8 q 52 25 86 -8 q 18 117 18 58 l 18 972 l 119 972 l 119 122 q 143 85 119 85 q 167 122 167 85 l 167 972 l 268 972 l 268 117 m 56 1096 q 144 1182 56 1182 q 233 1094 233 1182 q 144 1008 233 1008 q 56 1096 56 1008 m 115 1096 q 144 1067 115 1067 q 174 1094 174 1067 q 144 1124 174 1124 q 115 1096 115 1124 z "},"ů":{"ha":276,"x_min":18,"x_max":257,"o":"m 114 118 q 138 82 114 82 q 161 118 161 82 l 161 792 l 257 792 l 257 0 l 161 0 l 161 49 l 158 49 q 90 -8 139 -8 q 37 24 56 -8 q 18 117 18 56 l 18 792 l 114 792 l 114 118 m 50 915 q 139 1001 50 1001 q 228 914 228 1001 q 139 828 228 828 q 50 915 50 828 m 110 915 q 139 886 110 886 q 168 914 168 886 q 139 943 168 943 q 110 915 110 943 z "},"Ű":{"ha":288,"x_min":18,"x_max":281,"o":"m 268 117 q 234 25 268 58 q 143 -8 200 -8 q 52 25 86 -8 q 18 117 18 58 l 18 972 l 119 972 l 119 122 q 143 85 119 85 q 167 122 167 85 l 167 972 l 268 972 l 268 117 z "},"ű":{"ha":276,"x_min":18,"x_max":275,"o":"m 114 118 q 138 82 114 82 q 161 118 161 82 l 161 792 l 257 792 l 257 0 l 161 0 l 161 49 l 158 49 q 90 -8 139 -8 q 37 24 56 -8 q 18 117 18 56 l 18 792 l 114 792 l 114 118 z "},"Ų":{"ha":288,"x_min":18,"x_max":268,"o":"m 268 117 q 234 25 268 58 q 143 -8 200 -8 q 52 25 86 -8 q 18 117 18 58 l 18 972 l 119 972 l 119 122 q 143 85 119 85 q 167 122 167 85 l 167 972 l 268 972 l 268 117 m 182 -3 q 158 -17 167 -7 q 149 -40 149 -28 q 159 -60 149 -53 q 185 -67 169 -67 q 200 -65 196 -67 l 200 -157 q 184 -160 193 -160 q 167 -161 175 -161 q 102 -138 126 -161 q 78 -83 78 -115 q 105 -24 78 -49 q 181 7 132 1 l 182 -3 z "},"ų":{"ha":276,"x_min":18,"x_max":257,"o":"m 114 118 q 138 82 114 82 q 161 118 161 82 l 161 792 l 257 792 l 257 0 l 161 0 l 161 49 l 158 49 q 90 -8 139 -8 q 37 24 56 -8 q 18 117 18 56 l 18 792 l 114 792 l 114 118 m 256 0 q 220 -12 236 0 q 204 -40 204 -24 q 215 -60 204 -53 q 240 -67 225 -67 q 256 -65 251 -67 l 256 -157 q 240 -160 249 -160 q 222 -161 231 -161 q 158 -140 181 -161 q 135 -86 135 -118 q 167 -20 135 -49 q 256 8 200 8 l 256 0 z "},"Ŵ":{"ha":449,"x_min":0,"x_max":449,"o":"m 390 0 l 254 0 l 231 665 l 228 819 l 225 819 l 221 665 l 197 0 l 61 0 l 0 972 l 113 972 l 131 133 l 133 133 l 140 349 l 164 972 l 288 972 l 313 349 l 318 133 l 321 133 l 325 349 l 340 972 l 449 972 l 390 0 m 142 1013 l 175 1179 l 275 1179 l 308 1013 l 242 1013 l 226 1106 l 224 1106 l 208 1013 l 142 1013 z "},"ŵ":{"ha":447,"x_min":3,"x_max":443,"o":"m 443 792 l 381 0 l 251 0 l 228 515 l 225 663 l 221 663 l 218 515 l 196 0 l 67 0 l 3 792 l 106 792 l 126 289 l 131 118 l 133 118 l 140 289 l 169 792 l 278 792 l 306 289 l 313 118 l 315 118 l 319 289 l 340 792 l 443 792 m 139 832 l 172 999 l 272 999 l 306 832 l 239 832 l 224 925 l 221 925 l 206 832 l 139 832 z "},"Ŷ":{"ha":274,"x_min":0,"x_max":274,"o":"m 188 319 l 188 0 l 86 0 l 86 319 l 0 972 l 104 972 l 131 638 l 136 499 l 139 499 l 144 638 l 169 972 l 274 972 l 188 319 m 53 1013 l 86 1179 l 186 1179 l 219 1013 l 153 1013 l 138 1106 l 135 1106 l 119 1013 l 53 1013 z "},"ŷ":{"ha":272,"x_min":1,"x_max":269,"o":"m 135 364 l 140 189 l 143 189 l 149 364 l 178 790 l 269 790 l 161 -222 l 68 -222 l 93 0 l 1 790 l 106 790 l 135 364 m 51 832 l 85 999 l 185 999 l 218 832 l 151 832 l 136 925 l 133 925 l 118 832 l 51 832 z "},"Ź":{"ha":236,"x_min":8,"x_max":228,"o":"m 228 879 l 113 93 l 226 93 l 226 0 l 8 0 l 8 93 l 124 879 l 15 879 l 15 972 l 228 972 l 228 879 m 89 1013 l 107 1179 l 200 1179 l 160 1013 l 89 1013 z "},"ź":{"ha":231,"x_min":8,"x_max":222,"o":"m 222 704 l 107 88 l 221 88 l 221 0 l 8 0 l 8 81 l 124 704 l 15 704 l 15 792 l 222 792 l 222 704 m 82 832 l 100 999 l 193 999 l 153 832 l 82 832 z "},"Ż":{"ha":236,"x_min":8,"x_max":228,"o":"m 228 879 l 113 93 l 226 93 l 226 0 l 8 0 l 8 93 l 124 879 l 15 879 l 15 972 l 228 972 l 228 879 m 76 1147 l 169 1147 l 169 1026 l 76 1026 l 76 1147 z "},"ż":{"ha":231,"x_min":8,"x_max":222,"o":"m 222 704 l 107 88 l 221 88 l 221 0 l 8 0 l 8 81 l 124 704 l 15 704 l 15 792 l 222 792 l 222 704 m 69 967 l 163 967 l 163 846 l 69 846 l 69 967 z "},"ſ":{"ha":436,"x_min":24,"x_max":413,"o":"m 24 972 l 413 972 l 413 0 l 24 0 l 24 972 m 218 601 l 307 899 l 126 899 l 218 601 m 339 208 l 339 774 l 253 488 l 339 208 m 97 199 l 183 488 l 97 768 l 97 199 m 128 74 l 311 74 l 218 374 l 128 74 z "},"ȷ":{"ha":133,"x_min":-14,"x_max":115,"o":"m 115 -106 q 110 -172 115 -147 q 94 -208 106 -196 q 63 -224 83 -221 q 14 -228 43 -228 l -14 -228 l -14 -142 q 14 -135 10 -142 q 18 -110 18 -129 l 18 792 l 115 792 l 115 -106 z "},"Ǿ":{"ha":288,"x_min":17,"x_max":268,"o":"m 268 117 q 234 25 268 58 q 143 -8 200 -8 q 63 17 94 -8 l 57 -8 l 18 1 l 29 57 q 20 85 24 69 q 17 117 17 100 l 17 856 q 52 947 17 914 q 144 981 88 981 q 222 957 190 981 l 228 981 l 268 971 l 256 915 q 268 856 268 889 l 268 117 m 165 850 q 143 888 165 888 q 119 850 119 888 l 119 476 l 165 693 l 165 850 m 119 122 q 143 85 119 85 q 165 122 165 85 l 165 496 l 119 282 l 119 122 m 111 1013 l 129 1179 l 222 1179 l 182 1013 l 111 1013 z "},"Ș":{"ha":281,"x_min":15,"x_max":265,"o":"m 265 117 q 231 25 265 58 q 139 -8 196 -8 q 49 25 82 -8 q 15 117 15 58 l 15 342 l 117 342 l 117 122 q 140 85 117 85 q 163 122 163 85 l 163 299 q 142 397 163 353 q 94 486 121 442 q 40 590 65 535 q 15 718 15 644 l 15 856 q 50 947 15 914 q 142 981 85 981 q 231 947 197 981 q 265 856 265 914 l 265 674 l 163 674 l 163 850 q 140 888 163 888 q 117 850 117 888 l 117 718 q 138 618 117 663 q 185 529 158 574 q 240 426 214 481 q 265 299 265 371 l 265 117 m 99 -26 l 185 -26 l 185 -144 l 168 -219 l 131 -219 l 146 -144 l 99 -144 l 99 -26 z "},"Ț":{"ha":258,"x_min":8,"x_max":249,"o":"m 249 879 l 179 879 l 179 0 l 78 0 l 78 879 l 8 879 l 8 972 l 249 972 l 249 879 m 88 -26 l 174 -26 l 174 -144 l 157 -219 l 119 -219 l 135 -144 l 88 -144 l 88 -26 z "},"˝":{"ha":314,"x_min":24,"x_max":251,"o":"m 24 794 l 42 961 l 135 961 l 94 794 l 24 794 m 140 794 l 158 961 l 251 961 l 211 794 l 140 794 z "},"Ẃ":{"ha":449,"x_min":0,"x_max":449,"o":"m 390 0 l 254 0 l 231 665 l 228 819 l 225 819 l 221 665 l 197 0 l 61 0 l 0 972 l 113 972 l 131 133 l 133 133 l 140 349 l 164 972 l 288 972 l 313 349 l 318 133 l 321 133 l 325 349 l 340 972 l 449 972 l 390 0 m 192 1013 l 210 1179 l 303 1179 l 263 1013 l 192 1013 z "},"Ẁ":{"ha":449,"x_min":0,"x_max":449,"o":"m 390 0 l 254 0 l 231 665 l 228 819 l 225 819 l 221 665 l 197 0 l 61 0 l 0 972 l 113 972 l 131 133 l 133 133 l 140 349 l 164 972 l 288 972 l 313 349 l 318 133 l 321 133 l 325 349 l 340 972 l 449 972 l 390 0 m 149 1179 l 242 1179 l 260 1013 l 189 1013 l 149 1179 z "},"Ẅ":{"ha":449,"x_min":0,"x_max":449,"o":"m 390 0 l 254 0 l 231 665 l 228 819 l 225 819 l 221 665 l 197 0 l 61 0 l 0 972 l 113 972 l 131 133 l 133 133 l 140 349 l 164 972 l 288 972 l 313 349 l 318 133 l 321 133 l 325 349 l 340 972 l 449 972 l 390 0 m 146 1147 l 215 1147 l 215 1026 l 146 1026 l 146 1147 m 238 1147 l 307 1147 l 307 1026 l 238 1026 l 238 1147 z "},"Ỳ":{"ha":274,"x_min":0,"x_max":274,"o":"m 188 319 l 188 0 l 86 0 l 86 319 l 0 972 l 104 972 l 131 638 l 136 499 l 139 499 l 144 638 l 169 972 l 274 972 l 188 319 m 60 1179 l 153 1179 l 171 1013 l 100 1013 l 60 1179 z "},"Ǽ":{"ha":343,"x_min":0,"x_max":335,"o":"m 321 878 l 272 878 l 272 544 l 328 544 l 328 451 l 272 451 l 272 93 l 335 93 l 335 0 l 171 0 l 171 247 l 121 247 l 99 0 l 0 0 l 103 972 l 321 972 l 321 878 m 171 340 l 171 838 l 168 838 l 156 624 l 131 340 l 171 340 m 176 1013 l 194 1179 l 288 1179 l 247 1013 l 176 1013 z "},"ǽ":{"ha":418,"x_min":18,"x_max":400,"o":"m 165 72 q 138 13 158 35 q 89 -8 118 -8 q 36 22 54 -8 q 18 107 18 51 l 18 289 q 24 350 18 325 q 45 394 29 375 q 89 428 61 413 q 161 460 117 443 l 161 674 q 138 710 161 710 q 114 674 114 710 l 114 508 l 18 508 l 18 675 q 49 767 18 733 q 131 800 81 800 q 208 765 181 800 l 211 765 q 288 800 239 800 q 369 767 338 800 q 400 675 400 733 l 400 376 l 257 376 l 257 118 q 281 81 257 81 q 304 118 304 81 l 304 310 l 400 310 l 400 117 q 368 25 400 58 q 282 -8 336 -8 q 208 13 238 -8 q 168 72 179 35 l 165 72 m 304 674 q 281 710 304 710 q 257 674 257 710 l 257 465 l 304 465 l 304 674 m 161 375 q 137 359 146 367 q 122 341 128 351 q 115 315 117 331 q 114 278 114 300 l 114 117 q 138 81 114 81 q 161 118 161 81 l 161 375 m 154 794 l 172 961 l 265 961 l 225 794 l 154 794 z "},"ǿ":{"ha":276,"x_min":18,"x_max":257,"o":"m 257 117 q 224 25 257 58 q 139 -8 192 -8 q 63 15 94 -8 l 57 -8 l 18 1 l 31 54 q 18 117 18 82 l 18 675 q 51 767 18 733 q 139 800 85 800 q 211 779 182 800 l 217 800 l 257 790 l 244 739 q 257 675 257 713 l 257 117 m 161 674 q 138 710 161 710 q 114 674 114 710 l 114 388 l 161 578 l 161 674 m 114 118 q 138 82 114 82 q 161 118 161 82 l 161 407 l 114 218 l 114 118 m 106 832 l 124 999 l 217 999 l 176 832 l 106 832 z "},"ș":{"ha":268,"x_min":15,"x_max":253,"o":"m 253 117 q 219 25 253 58 q 133 -8 186 -8 q 48 25 81 -8 q 15 117 15 58 l 15 279 l 111 279 l 111 118 q 133 82 111 82 q 157 118 157 82 l 157 261 q 138 328 157 297 q 94 392 118 360 q 40 470 65 428 q 15 569 15 513 l 15 675 q 49 767 15 733 q 135 800 82 800 q 220 767 188 800 q 253 675 253 733 l 253 550 l 157 550 l 157 674 q 133 710 157 710 q 111 674 111 710 l 111 569 q 130 501 111 533 q 174 438 149 469 q 227 358 201 401 q 253 261 253 315 l 253 117 m 92 -26 l 178 -26 l 178 -144 l 161 -219 l 124 -219 l 139 -144 l 92 -144 l 92 -26 z "},"ț":{"ha":172,"x_min":7,"x_max":165,"o":"m 126 944 l 126 792 l 165 792 l 165 704 l 126 704 l 126 119 q 131 93 126 100 q 165 86 136 86 l 165 0 l 131 0 q 81 3 100 0 q 49 16 61 6 q 33 47 38 26 q 29 104 29 68 l 29 704 l 7 704 l 7 792 l 29 792 l 29 944 l 126 944 m 68 -26 l 154 -26 l 154 -144 l 138 -219 l 100 -219 l 115 -144 l 68 -144 l 68 -26 z "},"ẃ":{"ha":447,"x_min":3,"x_max":443,"o":"m 443 792 l 381 0 l 251 0 l 228 515 l 225 663 l 221 663 l 218 515 l 196 0 l 67 0 l 3 792 l 106 792 l 126 289 l 131 118 l 133 118 l 140 289 l 169 792 l 278 792 l 306 289 l 313 118 l 315 118 l 319 289 l 340 792 l 443 792 m 189 832 l 207 999 l 300 999 l 260 832 l 189 832 z "},"ẁ":{"ha":447,"x_min":3,"x_max":443,"o":"m 443 792 l 381 0 l 251 0 l 228 515 l 225 663 l 221 663 l 218 515 l 196 0 l 67 0 l 3 792 l 106 792 l 126 289 l 131 118 l 133 118 l 140 289 l 169 792 l 278 792 l 306 289 l 313 118 l 315 118 l 319 289 l 340 792 l 443 792 m 146 999 l 239 999 l 257 832 l 186 832 l 146 999 z "},"ẅ":{"ha":447,"x_min":3,"x_max":443,"o":"m 443 792 l 381 0 l 251 0 l 228 515 l 225 663 l 221 663 l 218 515 l 196 0 l 67 0 l 3 792 l 106 792 l 126 289 l 131 118 l 133 118 l 140 289 l 169 792 l 278 792 l 306 289 l 313 118 l 315 118 l 319 289 l 340 792 l 443 792 m 143 967 l 213 967 l 213 846 l 143 846 l 143 967 m 235 967 l 304 967 l 304 846 l 235 846 l 235 967 z "},"ỳ":{"ha":272,"x_min":1,"x_max":269,"o":"m 135 364 l 140 189 l 143 189 l 149 364 l 178 790 l 269 790 l 161 -222 l 68 -222 l 93 0 l 1 790 l 106 790 l 135 364 m 58 999 l 151 999 l 169 832 l 99 832 l 58 999 z "}}}
